<?xml version="1.0" encoding="UTF-8" standalone="no"?>
<!-- Generator: Adobe Illustrator 17.1.0, SVG Export Plug-In . SVG Version: 6.00 Build 0)  -->

<svg
   xmlns:dc="http://purl.org/dc/elements/1.1/"
   xmlns:cc="http://creativecommons.org/ns#"
   xmlns:rdf="http://www.w3.org/1999/02/22-rdf-syntax-ns#"
   xmlns:svg="http://www.w3.org/2000/svg"
   xmlns="http://www.w3.org/2000/svg"
   xmlns:sodipodi="http://sodipodi.sourceforge.net/DTD/sodipodi-0.dtd"
   xmlns:inkscape="http://www.inkscape.org/namespaces/inkscape"
   version="1.1"
   id="Слой_1"
   x="0px"
   y="0px"
   viewBox="0 0 219 54.7"
   enable-background="new 0 0 219 54.7"
   xml:space="preserve"
   inkscape:version="0.91 r13725"
   sodipodi:docname="logo.svg"><metadata
     id="metadata4388"><rdf:RDF><cc:Work
         rdf:about=""><dc:format>image/svg+xml</dc:format><dc:type
           rdf:resource="http://purl.org/dc/dcmitype/StillImage" /></cc:Work></rdf:RDF></metadata><defs
     id="defs4386" /><sodipodi:namedview
     pagecolor="#ffffff"
     bordercolor="#666666"
     borderopacity="1"
     objecttolerance="10"
     gridtolerance="10"
     guidetolerance="10"
     inkscape:pageopacity="0"
     inkscape:pageshadow="2"
     inkscape:window-width="1600"
     inkscape:window-height="817"
     id="namedview4384"
     showgrid="false"
     inkscape:zoom="2.3926941"
     inkscape:cx="63.428956"
     inkscape:cy="59.653029"
     inkscape:window-x="0"
     inkscape:window-y="25"
     inkscape:window-maximized="1"
     inkscape:current-layer="Слой_1" /><path
     fill="#FFFFFF"
     d="M167.4,2.8c-1.2-0.6-2.1-0.2-2.8,0.9c-0.4,0.7-0.9,1.4-1.2,2.1c-0.1,0.3-0.1,0.7-0.1,1c0.4,0,0.8,0,1-0.2  c0.9-0.7,1.7-1.1,2.7-0.3c1.1,0.8,1.9,1.7,1.7,3.2c-0.2,1.7-1.1,2.5-2.6,2.4c-1.5-0.1-2.3-1.2-3.1-2.3c-1.5-2.1-3.6-2.5-5.9-2.1  c-2.6,0.5-3.9,3.9-2.4,6.3c0.5-0.2,1-0.4,1.5-0.7c-0.2-0.4-0.4-0.7-0.5-1c-0.3-0.9-0.3-1.7,0.5-2.3c0.9-0.6,1.5,0.1,2,0.7  c0.2,0.2,0.4,0.5,0.5,0.7c1.4,2.2,3.5,3.1,6,2.9c2.2-0.2,4-1,4.9-3.2c1-2.3,1.2-4.7-0.5-6.9C168.7,3.6,168,3.1,167.4,2.8z"
     id="path4302"
     style="fill:#127f1f;fill-opacity:1" /><path
     fill="#FFFFFF"
     d="M56.6,27.5c-0.3-0.2-1,0.1-1.3,0.4c-1.1,0.8-2.1,1.8-3.2,2.7c-2.9,2.2-5.1,1.7-6.7-1.6  c-1.3-2.8-1.7-5.8-1.7-9.4c-0.1-1.9,0.3-4.3,1.4-6.6c1.2-2.5,3.5-3.5,5.7-2.1c1.1,0.7,2,2,2.7,3.2c0.4,0.7,0.7,1,1.5,0.8  c1.7-0.4,3.5-0.7,5.2-1.1c0.3-0.1,0.7-0.6,0.6-0.9c-0.3-2.5-4.7-6.6-7.2-6.4c-3.1,0.2-6,0.6-8.8,2c-1.4,0.7-2.8,1.8-3.8,3  c-4.3,5.8-4.2,15.7,0,21.5c1.8,2.4,4.1,3.7,7.1,3.3c3.3-0.6,6.1-2.3,8.2-5c0.5-0.6,0.7-1.5,0.8-2.3C57.1,28.3,56.9,27.6,56.6,27.5z"
     id="path4304"
     style="fill:#127f1f;fill-opacity:1" /><path
     fill="#FFFFFF"
     d="M208.7,35.2c-0.1-1.7-0.1-3.3-0.1-5c0-3.7-0.1-7.5,0.1-11.2c0.2-3.2,0.4-3.2-2.7-3.4c-1.2-0.1-2,0.4-2.3,1.6  c-0.2,1.2-0.4,2.4-0.3,3.7c0.4,4.7-0.5,9-2.6,13.2c-1.1,2.2-2.4,3.6-5.2,3.4c-2.2-0.2-2.6,0.5-1.8,2.7c0.1,0.2,0.1,0.3,0.2,0.5  c1.1,2.4,2.2,4.9,3.4,7.3c0.1,0.2,0.3,0.3,0.6,0.6c0.1-0.8,0.1-1.3,0.2-1.8c0.1-1.6,0-3.3,0.3-4.9c0.3-1.6,1-2,2.6-2.1  c1.2,0,2.4,0,3.7,0c2.1,0,2.4,0.4,2.1,2.5c-0.3,1.7-0.5,3.4-0.7,5c0,0.4,0.2,0.9,0.3,1.4c2-3.1,3.8-6.2,5.4-9.3  c0.2-0.4,0.1-0.9,0.2-1.5C209.6,38.3,208.9,37.7,208.7,35.2z M203.8,36.5c0,1-0.9,0.9-1.5,0.9c-0.8-0.1-0.8-0.7-0.5-1.2  c0.6-1.3,1.2-2.6,1.8-3.9c0.1,0,0.2,0.1,0.3,0.1C203.8,33.7,203.9,35.1,203.8,36.5z"
     id="path4306"
     style="fill:#127f1f;fill-opacity:1" /><path
     fill="#FFFFFF"
     d="M83.4,15c0.4-1.5,1.4-2.3,2.7-2.3c1.4,0,2.1,1,2.5,2.2c0.2,0.6,0.3,1.3,0.5,2.2c1.9-1.1,3.4-2.5,4.1-4.4  c0.3-0.8,0.2-1.4-0.8-1.4c-3.1-0.1-6.2-0.2-9.3-0.3c-2.6-0.1-3.8,0.8-4.4,4c-0.6,3.4-1.1,6.8-1.5,10.2c-0.3,2-0.5,4-0.5,6  c-0.1,2,0.7,2.7,2.6,2.8c2.9,0.1,5.9,0.1,8.8,0c1.7,0,2.3-0.9,1.9-2.6c-0.5-2-1-4-1.6-6c-0.3-1.1-0.7-2.2-1.3-3.2  c-0.7-1.4-1.2-1.4-2.5-0.5c-0.9,0.6-1.8,1.2-3,2c0.2-1.1,0.2-1.7,0.3-2.4C82.5,19.2,82.8,17.1,83.4,15z M82.2,25.4  c0.4-0.9,1.2-0.9,1.6,0c0.5,1.1,0.6,2.2,0.9,3.1c-0.2,1.2-0.2,2-0.5,2.8c-0.1,0.4-0.7,0.8-1.2,0.9c-0.4,0-1-0.4-1.1-0.7  C81.2,29.5,81.2,27.4,82.2,25.4z"
     id="path4308"
     style="fill:#127f1f;fill-opacity:1" /><path
     fill="#FFFFFF"
     d="M113.7,15.7c-0.2,0.2-0.4,0.3-0.6,0.5c-2.5,2.8-3.9,6-3.6,9.9c0.3,3.8,0.7,7.6,1.1,11.4  c0.6,5.5,1.1,10.9-0.3,16.3c-0.1,0.2,0,0.6,0.1,0.8c0.2,0.1,0.7,0.2,0.8,0c0.7-0.7,1.6-1.4,1.9-2.3c0.5-1.6,0.8-3.3,0.9-5  c0.1-4.1,0-8.1,0-12.4c1.5-0.4,2-1.9,2.5-3.3c1.7-5,1.1-10,0.2-15C116.4,14.6,115.4,14.3,113.7,15.7z M113.5,30.4  c-1-2.7-0.7-5.3-0.4-8c1.7,1.3,1.8,3.1,1.9,4.9C115.1,28.6,114.9,29.7,113.5,30.4z"
     id="path4310"
     style="fill:#127f1f;fill-opacity:1" /><path
     fill="#FFFFFF"
     d="M105.9,17c-0.1,0-0.2,0-0.2,0.1c-1.1,0.2-2.6,0.1-3.2,0.8c-0.7,0.7-0.5,2.2-0.7,3.4  c-0.1,0.5-0.1,1.3-0.5,1.5c-1.1,0.8-2.4,1.5-3.9,2.4c0.1-0.9,0.1-1.5,0.2-2c0.3-1.3,0.6-2.6,0.8-4c0.2-1.3-0.2-1.7-1.5-1.6  c-0.9,0.1-1.8,0.1-2.6,0.3c-0.4,0.1-0.8,0.5-0.9,0.9c-0.3,1.2-0.6,2.4-0.7,3.6c-0.2,3.7-0.3,7.5-0.3,11.2c0,0.3,0.5,0.8,0.7,0.8  c1.3-0.1,2.6-0.3,4.1-0.4c0-1.8,0-3.6,0-5.3c0-0.4,0.1-1.1,0.4-1.3c1.2-0.9,2.5-1.6,4-2.5c0.1,2.6,0.2,4.9,0.3,7.1  c0.1,2.1,0.2,2.2,2.2,2.4c2,0.3,2.4-0.2,2.4-2.3c0-3.8,0-7.6,0-11.3c0-0.9,0.3-1.7,0.5-2.6C107.2,17.2,106.9,16.8,105.9,17z"
     id="path4312"
     style="fill:#127f1f;fill-opacity:1" /><path
     fill="#FFFFFF"
     d="M166.7,17.2c-3,0.4-2.9,0.4-3.2,3.4c-0.1,0.7-0.1,1.7-0.6,2.1c-1.1,0.9-2.4,1.5-3.9,2.4c0.1-1,0.1-1.5,0.2-2  c0.3-1.4,0.6-2.7,0.8-4.1c0.2-1.2-0.2-1.6-1.4-1.5c-0.8,0.1-1.7,0.2-2.5,0.2c-0.8,0-1.1,0.3-1.3,1.1c-0.2,1.9-0.7,3.7-0.8,5.5  c-0.2,3-0.1,6.1-0.1,9.2c0,0.3,0.5,0.8,0.8,0.8c1.2-0.1,2.5-0.2,4-0.4c0-1.8,0-3.6,0-5.4c0-0.4,0.1-1,0.3-1.2  c1.3-0.9,2.6-1.6,4.2-2.6c0,0.9,0,1.4,0,1.8c0.1,2,0.1,4,0.3,6c0.1,0.6,0.5,1.3,0.9,1.6c0.6,0.3,1.4,0.3,2.1,0.3  c1,0,1.6-0.4,1.6-1.5c0-0.9-0.1-1.8-0.1-2.7c-0.2-3.7-0.4-7.4,0.4-11C168.9,16.9,168.9,16.9,166.7,17.2z"
     id="path4314"
     style="fill:#127f1f;fill-opacity:1" /><path
     fill="#FFFFFF"
     d="M73.7,16.9c-3.9,0.2-4.2,0.6-4.4,4.5c0,0.4,0,0.9-0.2,1.1c-1.3,0.8-2.6,1.6-3.9,2.3  c-0.1-0.1-0.2-0.2-0.3-0.3c0-0.2,0-0.4,0.1-0.6c0.3-1.8,0.7-3.5,0.9-5.3c0.1-0.9-0.4-1.3-1.3-1.3c-0.8,0.1-1.6,0.2-2.4,0.2  c-1,0-1.4,0.4-1.6,1.3c-0.9,4.6-1.1,9.2-1,13.8c0,1.2,0.3,1.6,1.6,1.3c0.8-0.2,1.6-0.2,2.4-0.2c0.8,0,1-0.4,1-1.1c0-1.4,0-2.9,0-4.3  c0-0.4,0.1-1,0.4-1.2c1.2-0.9,2.5-1.6,4-2.5c0.1,0.5,0.2,0.9,0.2,1.2c0,1.9,0,3.7,0.1,5.6c0.1,2.3,0.5,2.7,2.7,2.8  c1.6,0.1,2-0.3,1.9-1.9c-0.1-4.9-0.7-9.8,0.7-14.6C74.9,17.2,74.4,16.9,73.7,16.9z"
     id="path4316"
     style="fill:#127f1f;fill-opacity:1" /><path
     fill="#FFFFFF"
     d="M218.1,16.3c-0.3-1.6-1-1.8-2.3-0.9c-0.3,0.2-0.6,0.4-0.9,0.7c-2,2.3-3.3,4.9-3.2,8c0.2,3.2,0.5,6.4,0.8,9.6  c0.6,5.2,1.2,10.4-0.1,15.6c-0.1,0.3,0.1,0.5,0.1,0.8c0.3,0,0.8,0,0.9-0.2c0.6-0.8,1.4-1.5,1.6-2.4c1.2-4.8,1.1-9.7,0.4-14.7  c1.5-0.6,2-1.9,2.5-3.2C219.6,25.2,219.1,20.7,218.1,16.3z M215.2,28.6c-0.5-2.4-0.9-4.6-0.3-7.3c1.6,1.5,1.7,3.2,1.7,4.8  C216.6,27.1,216.6,28.2,215.2,28.6z"
     id="path4318"
     style="fill:#127f1f;fill-opacity:1" /><path
     fill="#FFFFFF"
     d="M197.5,34.6c0.5-0.4,0.9-1,1.1-1.6c0.2-0.6,0.1-1.4,0.2-2.1c-0.6,0.1-1.2,0.1-1.9,0.2  c-0.6-1.3-0.3-2.2,0.9-2.9c2-1.1,2.2-1.6,1.6-4.1c-1.1,0.4-2.1,0.7-3.3,1.1c0-1.7,0.9-2.5,2.1-3.1c1.7-0.8,2.4-2.1,2.1-4  c0-0.3-0.5-0.6-0.8-0.7c-3.1-0.3-6.3,2.1-6.9,5.1c-0.8,3.8-0.3,7.5,1.1,11.1C194.5,35.6,195.9,35.9,197.5,34.6z"
     id="path4320"
     style="fill:#127f1f;fill-opacity:1" /><path
     fill="#FFFFFF"
     d="M149.9,24.9c0.1-0.6,0.1-0.9,0.2-1.1c0.3-1.7,0.7-3.3,0.9-5c0.2-1.1-0.4-1.6-1.5-1.4  c-0.7,0.1-1.5,0.2-2.3,0.2c-1,0-1.3,0.4-1.5,1.3c-0.8,4.3-1.1,8.6-1,12.9c0,2.4,0,2.4,2.3,2.2c0.3,0,0.6,0,0.9-0.1  c1.8-0.2,1.8-0.2,1.8-2.1c0-0.6,0.1-1.1,0-1.7c-0.4-2.3,0.5-3.7,2.6-4.5c1.2-0.4,1.4-1.3,1.1-2.5C152.3,23.8,151.2,24.3,149.9,24.9z  "
     id="path4322"
     style="fill:#127f1f;fill-opacity:1" /><path
     fill="#FFFFFF"
     d="M124.1,17.2c-0.4,0.1-0.9,0.5-1.1,0.8c-0.9,1.6-1.9,3.1-2.4,4.8c-0.9,3.2-0.2,6.5,0.4,9.7  c0.3,1.8,1.6,2.4,3.1,1.2c1.7-1.4,2.5-3.3,2.6-5.5c0.1-1-0.6-1.2-1.4-0.7c-0.4,0.3-0.8,0.5-1.2,0.8c-1.3-2.4-0.5-4.9,1.7-5.8  c0.5-0.2,0.9-0.7,1.2-1.2c0.3-0.6,0.5-1.3,0.5-2c0-0.9-0.2-1.8-0.3-2.7C126.1,16.9,125,17,124.1,17.2z"
     id="path4324"
     style="fill:#127f1f;fill-opacity:1" /><path
     fill="#FFFFFF"
     d="M182.7,18c0.2-0.9-0.1-1.4-1.1-1.2c-0.9,0.2-1.9,0.2-2.7,0.4c-0.4,0.1-0.9,0.6-1,1c-0.3,2.1-0.4,4.2-0.6,6.3  c0.1,0,0.2,0,0.2,0c0,2.2-0.1,4.3,0,6.5c0.1,3,0.5,3.3,3.4,2.7c0.8-0.1,1.2-0.6,1.1-1.4c-0.1-1.1-0.2-2.2-0.2-3.3  C181.9,25.4,181.8,21.7,182.7,18z"
     id="path4326"
     style="fill:#127f1f;fill-opacity:1" /><path
     fill="#FFFFFF"
     d="M141.7,17.1c-1.8-0.4-2.6-0.3-3.7,1.1c-1,1.3-1.9,2.7-2.7,4.1c-0.8,1.3-1.1,2.6,0.1,4c0.2,0.3,0.3,0.7,0.4,1  c0.6,1.9,1.2,3.8,1.8,5.7c0.1,0.4,0.7,0.9,1,0.9c1,0.1,2.1-0.1,3.1-0.1c0.7,0,1-0.4,0.8-1.1c-0.8-2.4-1.5-4.7-2.5-7.1  c-0.5-1.2-1.4-2.2-2.9-2.3c-0.2,0-0.3-0.2-0.5-0.3c0.7-2.4,2.4-3.4,4.6-2.7c0.3,0.1,0.9,0.2,1.1,0c1-0.9,1.9-1.9,2.1-3.3  C143.3,17.1,142.5,17.3,141.7,17.1z"
     id="path4328"
     style="fill:#127f1f;fill-opacity:1" /><path
     fill="#FFFFFF"
     d="M188.6,20.2c1.9,0.6,3.9-1.2,3.6-3c-1.3-0.1-2.4-0.4-3.6-0.4c-0.7,0-1.7,0.3-2.1,0.9  c-1.4,1.8-2.6,3.7-3.7,5.7c-0.3,0.5-0.2,1.4,0,2c0.7,2.1,1.7,4.2,2.4,6.4c0.7,2.1,0.6,2.1,2.8,2.1c0.5,0,1-0.1,1.5,0  c0.9,0,1.3-0.5,1-1.3c-0.8-2.4-1.6-4.7-2.5-7c-0.5-1.1-1.3-2-2.7-2.1c-0.2,0-0.6-0.5-0.5-0.8C184.9,21.3,187.3,19.8,188.6,20.2z"
     id="path4330"
     style="fill:#127f1f;fill-opacity:1" /><path
     fill="#FFFFFF"
     d="M134.7,17.7c0.2-0.6-0.2-1-0.8-0.9c-0.8,0.1-1.7,0.3-2.5,0.3c-1.3,0-1.7,0.7-1.7,1.8  c-0.1,2.4-0.2,4.8-0.4,7.3c0.1,2,0.2,4,0.4,6.1c0.1,1,0.3,1.8,1.6,1.8c2.5-0.2,2.8-0.3,2.8-2C134,27.3,133.5,22.5,134.7,17.7z"
     id="path4332"
     style="fill:#127f1f;fill-opacity:1" /><path
     fill="#FFFFFF"
     d="M2.3,44.7h1.1v-4.1H0v4.1h1.1v-3.2h1.3V44.7z"
     id="path4334"
     style="fill:#127f1f;fill-opacity:1" /><path
     fill="#FFFFFF"
     d="M4.3,46.4h1.1v-1.7c0.1,0.1,0.2,0.1,0.3,0.1c0.1,0,0.2,0,0.4,0c0.3,0,0.6-0.1,0.8-0.2  c0.2-0.1,0.4-0.3,0.6-0.5c0.2-0.2,0.3-0.4,0.4-0.7C8,43.2,8,42.9,8,42.5c0-0.7-0.1-1.3-0.4-1.6c-0.3-0.3-0.6-0.5-1.1-0.5  c-0.3,0-0.5,0-0.7,0.1c-0.2,0.1-0.4,0.3-0.5,0.5h0l-0.1-0.5H4.3V46.4z M6.7,41.7c0.1,0.2,0.2,0.5,0.2,0.8c0,0.5-0.1,0.9-0.2,1.1  c-0.2,0.2-0.4,0.3-0.7,0.3c-0.1,0-0.3,0-0.4-0.1c-0.1,0-0.2-0.1-0.2-0.1V42c0.1-0.2,0.2-0.4,0.3-0.5c0.1-0.1,0.3-0.2,0.5-0.2  C6.4,41.4,6.6,41.5,6.7,41.7z"
     id="path4336"
     style="fill:#127f1f;fill-opacity:1" /><path
     fill="#FFFFFF"
     d="M8.7,43.5C8.7,43.8,8.9,44,9,44.2c0.2,0.2,0.4,0.3,0.6,0.4c0.2,0.1,0.5,0.2,0.8,0.2c0.6,0,1.1-0.2,1.4-0.6  c0.3-0.4,0.5-0.9,0.5-1.6c0-0.3,0-0.6-0.1-0.9c-0.1-0.3-0.2-0.5-0.4-0.7c-0.2-0.2-0.4-0.3-0.6-0.4c-0.2-0.1-0.5-0.2-0.8-0.2  c-0.6,0-1.1,0.2-1.4,0.6c-0.3,0.4-0.5,0.9-0.5,1.6C8.5,43,8.6,43.3,8.7,43.5z M9.8,41.7c0.1-0.2,0.4-0.3,0.6-0.3  c0.3,0,0.5,0.1,0.6,0.4c0.1,0.2,0.2,0.5,0.2,0.9c0,0.4-0.1,0.8-0.2,1c-0.1,0.2-0.3,0.3-0.6,0.3c-0.1,0-0.3,0-0.4-0.1  c-0.1-0.1-0.2-0.2-0.3-0.3c-0.1-0.1-0.1-0.3-0.1-0.4c0-0.2,0-0.3,0-0.5C9.6,42.2,9.7,41.9,9.8,41.7z"
     id="path4338"
     style="fill:#127f1f;fill-opacity:1" /><path
     fill="#FFFFFF"
     d="M15.6,44.7h1.1v-4.1h-0.7l-1.5,1.9l-0.3,0.6h0l0-0.6v-2h-1.1v4.1h0.7l1.4-1.9l0.4-0.6h0l0,0.6V44.7z"
     id="path4340"
     style="fill:#127f1f;fill-opacity:1" /><path
     fill="#FFFFFF"
     d="M18.4,43c0.3,0,0.6,0,0.7,0.1c0.1,0.1,0.2,0.2,0.2,0.3c0,0.3-0.2,0.5-0.7,0.5c-0.2,0-0.4,0-0.6-0.1  c-0.2,0-0.3-0.1-0.5-0.2l-0.2,0.8c0.1,0.1,0.3,0.2,0.5,0.2c0.2,0.1,0.5,0.1,0.8,0.1c0.3,0,0.6,0,0.8-0.1c0.2-0.1,0.4-0.2,0.5-0.3  c0.1-0.1,0.3-0.2,0.3-0.4c0.1-0.2,0.1-0.3,0.1-0.5c0-0.3-0.1-0.5-0.2-0.7c-0.1-0.2-0.3-0.3-0.6-0.4v0c0.1,0,0.2-0.1,0.3-0.2  c0.1-0.1,0.1-0.1,0.2-0.2c0.1-0.1,0.1-0.2,0.1-0.3c0-0.1,0-0.2,0-0.3c0-0.3-0.1-0.6-0.3-0.8c-0.2-0.2-0.6-0.3-1-0.3  c-0.3,0-0.6,0-0.9,0.1c-0.3,0.1-0.5,0.2-0.6,0.2l0.2,0.8c0.1-0.1,0.2-0.1,0.4-0.2c0.2-0.1,0.4-0.1,0.6-0.1c0.2,0,0.4,0,0.5,0.1  c0.1,0.1,0.2,0.2,0.2,0.3c0,0.1-0.1,0.2-0.2,0.3c-0.1,0.1-0.3,0.1-0.5,0.1H18V43H18.4z"
     id="path4342"
     style="fill:#127f1f;fill-opacity:1" /><path
     fill="#FFFFFF"
     d="M21.1,44.7c0.2,0,0.4,0,0.7,0.1c0.3,0,0.5,0,0.7,0c0.7,0,1.2-0.1,1.5-0.3c0.3-0.2,0.5-0.5,0.5-0.9  c0-0.3-0.1-0.5-0.2-0.7c-0.1-0.2-0.3-0.3-0.6-0.4v0c0.2-0.1,0.4-0.2,0.5-0.4c0.1-0.2,0.2-0.4,0.2-0.6c0-0.3-0.1-0.6-0.4-0.8  c-0.3-0.2-0.7-0.3-1.3-0.3c-0.3,0-0.6,0-0.9,0c-0.3,0-0.5,0-0.7,0V44.7z M22.1,42.9h0.5c0.3,0,0.5,0,0.6,0.1  c0.1,0.1,0.2,0.2,0.2,0.4c0,0.2-0.1,0.3-0.2,0.4c-0.1,0.1-0.3,0.1-0.6,0.1c-0.1,0-0.2,0-0.2,0c-0.1,0-0.1,0-0.2,0V42.9z M22.1,42.3  v-0.9c0.1,0,0.1,0,0.2,0c0.1,0,0.2,0,0.3,0c0.2,0,0.4,0,0.5,0.1c0.1,0.1,0.1,0.2,0.1,0.3c0,0.1-0.1,0.2-0.2,0.3  c-0.1,0.1-0.3,0.1-0.4,0.1H22.1z"
     id="path4344"
     style="fill:#127f1f;fill-opacity:1" /><path
     fill="#FFFFFF"
     d="M25.1,43.5c0.1,0.3,0.2,0.5,0.4,0.7c0.2,0.2,0.4,0.3,0.6,0.4c0.2,0.1,0.5,0.2,0.8,0.2c0.6,0,1.1-0.2,1.4-0.6  c0.3-0.4,0.5-0.9,0.5-1.6c0-0.3,0-0.6-0.1-0.9c-0.1-0.3-0.2-0.5-0.4-0.7c-0.2-0.2-0.4-0.3-0.6-0.4c-0.2-0.1-0.5-0.2-0.8-0.2  c-0.6,0-1.1,0.2-1.4,0.6C25.2,41.4,25,42,25,42.7C25,43,25,43.3,25.1,43.5z M26.3,41.7c0.1-0.2,0.4-0.3,0.6-0.3  c0.3,0,0.5,0.1,0.6,0.4c0.1,0.2,0.2,0.5,0.2,0.9c0,0.4-0.1,0.8-0.2,1c-0.1,0.2-0.3,0.3-0.6,0.3c-0.1,0-0.3,0-0.4-0.1  c-0.1-0.1-0.2-0.2-0.3-0.3c-0.1-0.1-0.1-0.3-0.1-0.4c0-0.2,0-0.3,0-0.5C26.1,42.2,26.1,41.9,26.3,41.7z"
     id="path4346"
     style="fill:#127f1f;fill-opacity:1" /><path
     fill="#FFFFFF"
     d="M33.6,43.8H33v-3.2h-2.8c0,0.5,0,1-0.1,1.3c0,0.4-0.1,0.7-0.2,0.9c-0.1,0.3-0.1,0.5-0.2,0.6  c-0.1,0.1-0.1,0.3-0.2,0.3h-0.5v1.9h0.8l0.1-0.9h2.7l0.1,0.9h0.8V43.8z M30.6,43.8c0.1-0.1,0.1-0.3,0.2-0.5c0.1-0.2,0.1-0.4,0.1-0.6  c0-0.2,0.1-0.4,0.1-0.7c0-0.2,0-0.4,0.1-0.6h0.9v2.3H30.6z"
     id="path4348"
     style="fill:#127f1f;fill-opacity:1" /><path
     fill="#FFFFFF"
     d="M36.8,43.6c-0.1,0.1-0.2,0.1-0.3,0.2c-0.1,0-0.3,0.1-0.5,0.1c-0.2,0-0.3,0-0.4-0.1c-0.1-0.1-0.2-0.2-0.3-0.3  c-0.1-0.1-0.1-0.2-0.2-0.4c0-0.1-0.1-0.3-0.1-0.5c0-0.4,0.1-0.7,0.2-0.9c0.2-0.2,0.4-0.3,0.7-0.3c0.2,0,0.3,0,0.4,0  c0.1,0,0.2,0.1,0.4,0.1l0.3-0.9c-0.1-0.1-0.3-0.1-0.5-0.2c-0.2,0-0.4-0.1-0.7-0.1c-0.6,0-1,0.2-1.4,0.6C34.1,41.4,34,42,34,42.7  c0,0.3,0,0.6,0.1,0.9c0.1,0.3,0.2,0.5,0.3,0.7c0.1,0.2,0.3,0.3,0.5,0.4c0.2,0.1,0.5,0.2,0.8,0.2c0.2,0,0.5,0,0.7-0.1  c0.2-0.1,0.4-0.2,0.6-0.3L36.8,43.6z"
     id="path4350"
     style="fill:#127f1f;fill-opacity:1" /><path
     fill="#FFFFFF"
     d="M40.6,40.6h-3.4v1h1.2v3.2h1.1v-3.2h1.1V40.6z"
     id="path4352"
     style="fill:#127f1f;fill-opacity:1" /><path
     fill="#FFFFFF"
     d="M41.1,44.7c0.2,0,0.4,0,0.7,0.1c0.3,0,0.5,0,0.7,0c0.7,0,1.2-0.1,1.5-0.3c0.3-0.2,0.5-0.5,0.5-0.9  c0-0.3-0.1-0.5-0.2-0.7c-0.1-0.2-0.3-0.3-0.6-0.4v0c0.2-0.1,0.4-0.2,0.5-0.4c0.1-0.2,0.2-0.4,0.2-0.6c0-0.3-0.1-0.6-0.4-0.8  c-0.3-0.2-0.7-0.3-1.3-0.3c-0.3,0-0.6,0-0.9,0c-0.3,0-0.5,0-0.7,0V44.7z M42.1,42.9h0.5c0.3,0,0.5,0,0.6,0.1  c0.1,0.1,0.2,0.2,0.2,0.4c0,0.2-0.1,0.3-0.2,0.4c-0.1,0.1-0.3,0.1-0.6,0.1c-0.1,0-0.2,0-0.2,0c-0.1,0-0.1,0-0.2,0V42.9z M42.1,42.3  v-0.9c0.1,0,0.1,0,0.2,0c0.1,0,0.2,0,0.3,0c0.2,0,0.4,0,0.5,0.1c0.1,0.1,0.1,0.2,0.1,0.3c0,0.1-0.1,0.2-0.2,0.3  c-0.1,0.1-0.3,0.1-0.4,0.1H42.1z"
     id="path4354"
     style="fill:#127f1f;fill-opacity:1" /><path
     fill="#FFFFFF"
     d="M48.1,43.7c-0.1,0.1-0.2,0.1-0.4,0.2c-0.2,0.1-0.4,0.1-0.6,0.1c-0.4,0-0.6-0.1-0.8-0.3  c-0.2-0.2-0.2-0.4-0.3-0.8h2.4c0-0.1,0-0.3,0.1-0.4c0-0.1,0-0.3,0-0.4c0-0.3,0-0.6-0.1-0.8c-0.1-0.2-0.2-0.4-0.4-0.5  c-0.2-0.1-0.3-0.2-0.5-0.3c-0.2-0.1-0.4-0.1-0.6-0.1c-0.6,0-1.1,0.2-1.4,0.5c-0.3,0.4-0.5,0.9-0.5,1.6c0,0.7,0.2,1.2,0.5,1.6  c0.3,0.4,0.8,0.6,1.4,0.6c0.3,0,0.6,0,0.9-0.1c0.3-0.1,0.5-0.2,0.7-0.3L48.1,43.7z M47.5,41.6c0.1,0.2,0.2,0.4,0.1,0.7h-1.5  c0-0.3,0.1-0.5,0.2-0.7c0.1-0.2,0.3-0.3,0.6-0.3C47.2,41.3,47.3,41.4,47.5,41.6z"
     id="path4356"
     style="fill:#127f1f;fill-opacity:1" /><path
     fill="#FFFFFF"
     d="M51.7,44.7h1.1v-4.1h-1.1v1.6h-1.3v-1.6h-1.1v4.1h1.1v-1.6h1.3V44.7z"
     id="path4358"
     style="fill:#127f1f;fill-opacity:1" /><path
     fill="#FFFFFF"
     d="M56.1,44.7h1.1v-4.1h-1.1v1.6h-1.3v-1.6h-1.1v4.1h1.1v-1.6h1.3V44.7z"
     id="path4360"
     style="fill:#127f1f;fill-opacity:1" /><path
     fill="#FFFFFF"
     d="M58.3,41.6c0.2-0.1,0.3-0.1,0.6-0.2c0.2,0,0.5-0.1,0.7-0.1c0.3,0,0.5,0.1,0.5,0.2c0.1,0.1,0.1,0.4,0.1,0.7  c-0.4,0-0.7,0-1,0c-0.3,0-0.5,0.1-0.7,0.2c-0.2,0.1-0.4,0.2-0.5,0.4c-0.1,0.2-0.2,0.4-0.2,0.6c0,0.2,0,0.3,0.1,0.5  c0.1,0.1,0.1,0.3,0.3,0.4c0.1,0.1,0.2,0.2,0.4,0.2c0.2,0.1,0.3,0.1,0.5,0.1c0.3,0,0.6-0.1,0.7-0.2c0.2-0.1,0.3-0.3,0.5-0.4h0  l0.2,0.6h0.9c-0.1-0.2-0.1-0.4-0.1-0.6c0-0.2,0-0.5,0-0.7c0-0.2,0-0.5,0-0.7c0-0.2,0-0.5,0-0.7c0-0.2,0-0.4-0.1-0.6  c0-0.2-0.1-0.3-0.2-0.5c-0.1-0.1-0.3-0.2-0.5-0.3c-0.2-0.1-0.4-0.1-0.7-0.1c-0.3,0-0.6,0-0.9,0.1c-0.3,0.1-0.6,0.1-0.8,0.2  L58.3,41.6z M59,43.8c-0.1-0.1-0.1-0.2-0.1-0.4c0-0.1,0-0.2,0.1-0.3c0.1-0.1,0.2-0.1,0.3-0.2c0.1,0,0.3-0.1,0.4-0.1  c0.2,0,0.3,0,0.5,0v0.5c-0.1,0.1-0.2,0.2-0.3,0.3c-0.1,0.1-0.3,0.1-0.5,0.1C59.2,43.9,59.1,43.9,59,43.8z"
     id="path4362"
     style="fill:#127f1f;fill-opacity:1" /><path
     fill="#FFFFFF"
     d="M64.3,44.7h1.1v-4.1c-0.2,0-0.4-0.1-0.6-0.1c-0.2,0-0.5,0-0.7,0c-0.7,0-1.2,0.1-1.5,0.4  c-0.3,0.2-0.5,0.6-0.5,1.1c0,0.3,0.1,0.6,0.3,0.8c0.2,0.2,0.4,0.3,0.7,0.4l-0.4,0.3l-0.8,1.3H63l0.8-1.5l0.5-0.1V44.7z M64,42.6  c-0.3,0-0.5,0-0.7-0.1c-0.1-0.1-0.2-0.3-0.2-0.5s0.1-0.4,0.2-0.5c0.1-0.1,0.3-0.2,0.6-0.2c0.1,0,0.1,0,0.2,0c0.1,0,0.1,0,0.2,0.1  v1.1L64,42.6z"
     id="path4364"
     style="fill:#127f1f;fill-opacity:1" /><path
     fill="#FFFFFF"
     d="M70.6,44.7h1.2l-1.1-1.9l-0.5-0.3l0.4-0.3l1-1.6h-1.1l-1,1.6l-0.3,0.1v-1.8h-1.1v4.1h1.1V43h0.3L70.6,44.7z"
     id="path4366"
     style="fill:#127f1f;fill-opacity:1" /><path
     fill="#FFFFFF"
     d="M72.1,43.5c0.1,0.3,0.2,0.5,0.4,0.7c0.2,0.2,0.4,0.3,0.6,0.4c0.2,0.1,0.5,0.2,0.8,0.2c0.6,0,1.1-0.2,1.4-0.6  c0.3-0.4,0.5-0.9,0.5-1.6c0-0.3,0-0.6-0.1-0.9c-0.1-0.3-0.2-0.5-0.4-0.7c-0.2-0.2-0.4-0.3-0.6-0.4c-0.2-0.1-0.5-0.2-0.8-0.2  c-0.6,0-1.1,0.2-1.4,0.6c-0.3,0.4-0.5,0.9-0.5,1.6C71.9,43,72,43.3,72.1,43.5z M73.3,41.7c0.1-0.2,0.4-0.3,0.6-0.3  c0.3,0,0.5,0.1,0.6,0.4c0.1,0.2,0.2,0.5,0.2,0.9c0,0.4-0.1,0.8-0.2,1c-0.1,0.2-0.3,0.3-0.6,0.3c-0.1,0-0.3,0-0.4-0.1  c-0.1-0.1-0.2-0.2-0.3-0.3c-0.1-0.1-0.1-0.3-0.1-0.4c0-0.2,0-0.3,0-0.5C73,42.2,73.1,41.9,73.3,41.7z"
     id="path4368"
     style="fill:#127f1f;fill-opacity:1" /><path
     fill="#FFFFFF"
     d="M80,44.7h1v-4.1h-1.1l-0.9,1.5l-0.2,0.5h0l-0.2-0.5l-0.9-1.6h-1.1v4.1h0.9v-1.9L77.4,42h0l0.3,0.7l0.8,1.3  h0.4l0.8-1.3L80,42h0L80,42.8V44.7z"
     id="path4370"
     style="fill:#127f1f;fill-opacity:1" /><path
     fill="#FFFFFF"
     d="M84.3,44.7h1.1v-4.1h-3.4v4.1H83v-3.2h1.3V44.7z"
     id="path4372"
     style="fill:#127f1f;fill-opacity:1" /><path
     fill="#FFFFFF"
     d="M86.5,41.6c0.2-0.1,0.3-0.1,0.6-0.2c0.2,0,0.5-0.1,0.7-0.1c0.3,0,0.5,0.1,0.5,0.2c0.1,0.1,0.1,0.4,0.1,0.7  c-0.4,0-0.7,0-1,0c-0.3,0-0.5,0.1-0.7,0.2c-0.2,0.1-0.4,0.2-0.5,0.4S86,43.3,86,43.6c0,0.2,0,0.3,0.1,0.5c0.1,0.1,0.1,0.3,0.3,0.4  c0.1,0.1,0.2,0.2,0.4,0.2c0.2,0.1,0.3,0.1,0.5,0.1c0.3,0,0.6-0.1,0.7-0.2c0.2-0.1,0.3-0.3,0.5-0.4h0l0.2,0.6h0.9  c-0.1-0.2-0.1-0.4-0.1-0.6c0-0.2,0-0.5,0-0.7c0-0.2,0-0.5,0-0.7c0-0.2,0-0.5,0-0.7c0-0.2,0-0.4-0.1-0.6c0-0.2-0.1-0.3-0.2-0.5  c-0.1-0.1-0.3-0.2-0.5-0.3c-0.2-0.1-0.4-0.1-0.7-0.1c-0.3,0-0.6,0-0.9,0.1c-0.3,0.1-0.6,0.1-0.8,0.2L86.5,41.6z M87.2,43.8  c-0.1-0.1-0.1-0.2-0.1-0.4c0-0.1,0-0.2,0.1-0.3c0.1-0.1,0.2-0.1,0.3-0.2c0.1,0,0.3-0.1,0.4-0.1c0.2,0,0.3,0,0.5,0v0.5  c-0.1,0.1-0.2,0.2-0.3,0.3c-0.1,0.1-0.3,0.1-0.5,0.1C87.4,43.9,87.3,43.9,87.2,43.8z"
     id="path4374"
     style="fill:#127f1f;fill-opacity:1" /><path
     fill="#FFFFFF"
     d="M92.7,44.7h1.1v-4.1h-1.1v1.6h-1.3v-1.6h-1.1v4.1h1.1v-1.6h1.3V44.7z"
     id="path4376"
     style="fill:#127f1f;fill-opacity:1" /><path
     fill="#FFFFFF"
     d="M97.1,44.7h1.1v-4.1h-0.7l-1.5,1.9l-0.3,0.6h0l0-0.6v-2h-1.1v4.1h0.7l1.4-1.9l0.4-0.6h0l0,0.6V44.7z"
     id="path4378"
     style="fill:#127f1f;fill-opacity:1" /><path
     fill="#FFFFFF"
     d="M101.3,44.7h1.1v-4.1c-0.2,0-0.4-0.1-0.6-0.1c-0.2,0-0.5,0-0.7,0c-0.7,0-1.2,0.1-1.5,0.4  c-0.3,0.2-0.5,0.6-0.5,1.1c0,0.3,0.1,0.6,0.3,0.8c0.2,0.2,0.4,0.3,0.7,0.4l-0.4,0.3l-0.8,1.3h1.3l0.8-1.5l0.5-0.1V44.7z M101,42.6  c-0.3,0-0.5,0-0.7-0.1c-0.1-0.1-0.2-0.3-0.2-0.5s0.1-0.4,0.2-0.5c0.1-0.1,0.3-0.2,0.6-0.2c0.1,0,0.1,0,0.2,0c0.1,0,0.1,0,0.2,0.1  v1.1L101,42.6z"
     id="path4380"
     style="fill:#127f1f;fill-opacity:1" /><path
     fill-rule="evenodd"
     clip-rule="evenodd"
     fill="#FFFFFF"
     d="M12.1,35.1c0-0.1-0.1-0.3-0.2-0.5c-0.1-0.1-0.2-0.1-0.3-0.1  c-0.7,0.2-1,0.7-0.8,1.4c0.3,0.9,0.9,1.2,1.8,0.9c0.6-0.2,0.9-0.7,1.3-1.2c0.7-1.1,1-2.3,1.1-3.5c0-0.4,0.1-0.8,0.1-1.3  c0-1.6-0.1-3.1-0.5-4.6c-0.2-0.7-0.3-1.4-0.7-1.9c-0.5-0.9-1.3-1.5-2.3-1.7c-0.7-0.1-1.4,0-1.9,0.6C9.1,24,9,24.8,9.3,25.6  c0.1,0.3,0.3,0.6,0.5,0.9c0.4,0.7,1.4,0.8,1.9,0.6c0.2-0.1,0.4-0.3,0.5-0.4c0.3-0.6,0.3-1.2,0.1-1.9c-0.1-0.2-0.2-0.3-0.3-0.5  c-0.3-0.3-0.7-0.3-1-0.1c-0.3,0.2-0.5,0.7-0.4,1.1c0,0.1,0.1,0.2,0.1,0.2c0.1,0,0.2,0.1,0.4,0.1c0,0,0.1-0.2,0.1-0.3  c-0.1-0.3,0.1-0.6,0.4-0.6c0.1,0,0.3,0.1,0.3,0.2c0.3,0.5,0.1,1.1-0.3,1.4c-0.4,0.3-1.1,0.2-1.4-0.2c-0.4-0.5-0.5-1.3-0.1-1.9  c0.3-0.6,0.9-1,1.6-0.9c0.5,0.1,0.9,0.4,1.2,0.8c0.6,0.9,0.5,2.4-0.1,3.3c-0.4,0.6-1.1,0.7-1.8,0.7c-0.6,0-1.1-0.2-1.6-0.7  c0.1,0.2,0.3,0.4,0.1,0.5c-0.3,0.2-0.3-0.2-0.5-0.3c0.1,0.2,0.2,0.3,0.3,0.4c0.1,0.1,0.2,0.2,0.3,0.4c0,0.1,0,0.2,0,0.3  c-0.1,0-0.2,0-0.3-0.1c-0.2-0.2-0.3-0.4-0.6-0.6c0.1,0.3,0.1,0.6,0.1,0.9c0,0.1,0,0.3-0.1,0.3c-0.2,0.1-0.2-0.1-0.3-0.2  c-0.1-0.2-0.1-0.4-0.2-0.6c-0.1,0.4-0.2,0.7-0.2,1c0,0.1-0.1,0.3-0.2,0.2c-0.1,0-0.1-0.2-0.1-0.3c0.1-0.4,0.2-0.7,0.2-1.1  c0,0,0-0.1,0-0.2C7.8,28,7.8,28,7.7,28c-0.2,0.2-0.4,0.4-0.6,0.7c-0.1,0.1-0.2,0.1-0.2,0.1c0-0.1-0.1-0.2-0.1-0.3  C7,28.3,7.1,28.2,7.2,28c0.1-0.1,0.1-0.1,0.2-0.2c0,0,0,0,0-0.1c-0.1,0-0.1,0-0.2,0.1C7,28,6.8,28.2,6.5,28.3c-0.1,0-0.2,0-0.3,0  c0-0.1,0-0.3,0.1-0.3c0.2-0.2,0.4-0.3,0.7-0.5c0.1,0,0.1-0.1,0.1-0.2c-0.2,0.1-0.4,0.2-0.5,0.3c-0.2,0.1-0.3,0.2-0.5,0.2  c-0.1,0-0.2-0.1-0.2-0.1c0.1-0.1,0.1-0.2,0.2-0.2C6.3,27.3,6.7,27.2,7,27c0,0,0-0.1,0-0.1C6.8,27,6.5,27,6.3,27  c-0.1,0-0.2,0.1-0.4,0c-0.1,0-0.2-0.1-0.2-0.2c0.1-0.1,0.1-0.2,0.2-0.2c0.3-0.1,0.6-0.1,1-0.2c0.1,0,0.1,0,0.2-0.1c0,0,0-0.1,0-0.1  c-0.1,0-0.2-0.1-0.3-0.1c-0.1,0-0.1-0.1-0.2-0.2c0.1-0.1,0.2-0.2,0.2-0.1c0.3,0.1,0.5,0,0.7-0.1c0.3-0.2,0.7,0,0.9,0.3  c0.2,0.3,0.1,0.8-0.1,1c-0.1,0.1-0.3,0.1-0.4,0c-0.1-0.1-0.2-0.2-0.2-0.4c0-0.1,0.2-0.2,0.3-0.4c0,0-0.1-0.2-0.2-0.2  c-0.1,0-0.2,0.2-0.2,0.2c0,0.2,0,0.4,0,0.6c0,0,0,0.1,0.1,0.1c0.2,0.2,0.5,0.2,0.8,0c0.2-0.1,0.4-0.5,0.3-0.7  c-0.2-0.5-0.4-1-0.5-1.5c-0.3,0.2-0.7,0.3-1.1,0.2c-0.1,0.1-0.1,0.2-0.2,0.3c-0.1,0.1-0.2,0.1-0.3,0.1c0-0.1-0.1-0.2,0-0.3  c0-0.1,0.2-0.3-0.1-0.3c-0.1,0.1-0.2,0.2-0.3,0.3c-0.1,0.1-0.2,0.1-0.2,0.1c0-0.1-0.1-0.2,0-0.3c0.1-0.2,0.2-0.3,0.3-0.5  c-0.2,0.1-0.4,0.2-0.5,0.3c-0.1,0.1-0.3,0.2-0.4,0.2c-0.1,0-0.2,0-0.3,0c0-0.1,0.1-0.2,0.1-0.3c0.2-0.2,0.5-0.3,0.7-0.5  c-0.2,0-0.4,0.1-0.6,0.1c-0.1,0-0.2-0.1-0.3-0.1c0.1-0.1,0.1-0.2,0.2-0.2c0.3-0.1,0.7-0.2,1-0.3c-0.2,0-0.5-0.1-0.7-0.1  c-0.1,0-0.2-0.1-0.2-0.2c0.1-0.1,0.2-0.1,0.3-0.1c0.3,0,0.5,0.1,0.8,0.1c0,0,0-0.1,0-0.1c-0.2-0.1-0.3-0.2-0.5-0.3  c-0.1-0.1-0.2-0.2-0.1-0.3c0.1-0.2,0.2-0.1,0.3,0c0.2,0.1,0.3,0.2,0.6,0.3c-0.1-0.1-0.1-0.2-0.2-0.3c0-0.1,0-0.2,0-0.3  c0.1,0,0.2,0,0.2,0.1c0.1,0.1,0.2,0.1,0.3,0.1c0.4-0.1,0.8,0,1,0.3c0.3,0.4,0.3,0.8,0.1,1.2c-0.2,0.2-0.4,0.4-0.7,0.3  C7.2,24.3,7,24.2,7,23.9c0-0.1,0-0.3,0.1-0.4c0.1-0.1,0.2-0.1,0.3-0.1c0,0.1,0.1,0.2,0.1,0.3c0,0,0,0.1,0,0.1c0.2,0.1,0.3,0,0.3-0.2  c0-0.2-0.1-0.4-0.3-0.5c-0.2-0.1-0.3-0.1-0.5,0.1c-0.3,0.3-0.3,0.7-0.2,1.1c0.1,0.3,0.3,0.4,0.5,0.4c0.3,0,0.6,0,0.8-0.3  c0.1-0.2,0.2-0.5,0.3-0.7c0.2-0.4,0.5-0.9,0.7-1.3c-0.7-0.3-1.1-1-1.2-1.8c0-0.1,0-0.2,0-0.3c0-0.4-0.2-0.6-0.6-0.7  c-0.5-0.1-1,0.4-1,0.9c0,0.3,0.1,0.5,0.4,0.6c0.1,0.1,0.3,0,0.4-0.1c0.1-0.1,0.1-0.3,0.1-0.4c0,0-0.1-0.1-0.1-0.1  c0,0-0.1,0.1-0.1,0.1C7,20.9,6.9,21,6.8,21c-0.2-0.1-0.2-0.2-0.2-0.4c0.1-0.3,0.3-0.5,0.6-0.5c0.3,0,0.4,0.1,0.5,0.3  c0.2,0.3,0.2,0.7,0,1c-0.2,0.3-0.5,0.4-0.9,0.4c-0.1,0-0.2,0.1-0.3,0.1c-0.1,0.1-0.1,0.2-0.2,0.3c-0.1,0-0.2,0-0.2,0  c0-0.1,0-0.2,0-0.3c0.1-0.1,0.2-0.3,0.3-0.4c0,0,0,0-0.1,0C6.1,21.7,6,21.9,5.8,22c-0.1,0.1-0.2,0.2-0.3,0.1c-0.1-0.1,0-0.2,0.1-0.4  c0.2-0.2,0.3-0.4,0.5-0.6c0,0,0-0.1-0.1-0.1c-0.2,0.1-0.5,0.3-0.7,0.4c-0.1,0.1-0.2,0.2-0.3,0.1c0-0.1,0-0.3,0.1-0.4  c0.2-0.1,0.4-0.2,0.6-0.3c0.1-0.1,0.2-0.1,0.3-0.1c0,0,0,0,0-0.1c-0.2,0-0.4,0-0.6,0.1c-0.2,0-0.3,0-0.5,0c-0.1,0-0.1-0.1-0.2-0.2  c0.1-0.1,0.1-0.2,0.2-0.2c0.3-0.1,0.7-0.1,1.1-0.1c-0.2-0.1-0.4-0.1-0.5-0.1c-0.1,0-0.2-0.2-0.2-0.3c0-0.2,0.2-0.1,0.3-0.1  c0.2,0,0.4,0.1,0.6,0.1c0,0,0-0.1,0-0.1c-0.1-0.1-0.3-0.1-0.4-0.2c-0.1,0-0.1-0.1-0.2-0.1c0-0.1,0-0.2-0.1-0.3c0.1,0,0.2-0.1,0.3,0  c0.2,0.1,0.5,0.2,0.7,0.3c0,0,0,0,0.1-0.1c0-0.1-0.1-0.2-0.1-0.2c0-0.1,0-0.2,0.1-0.2c0,0,0.2,0,0.2,0c0.1,0.2,0.3,0.2,0.5,0.2  c0.3,0,0.5,0.1,0.8,0.1c0.1-0.3,0.3-0.6,0.5-0.9c0.2-0.4,0.2-0.8,0-1.3c-0.1-0.2-0.3-0.3-0.5-0.4c-0.7-0.1-1.2,0.5-1.1,1.1  C6.9,18,7,18,7,18.1c0.1,0.1,0.2,0.2,0.4,0.2c0.2-0.1,0.2-0.2,0.2-0.5c0,0.1,0,0.2-0.1,0.2c-0.1,0.1-0.2,0.1-0.2,0.1  c-0.1,0-0.2-0.1-0.2-0.2c-0.1-0.3,0.1-0.7,0.4-0.7c0.3-0.1,0.5,0.2,0.6,0.5c0,0.4-0.1,0.8-0.4,0.9c-0.4,0.2-0.8,0.1-1-0.1  c-0.2,0-0.4,0.1-0.4,0c-0.2-0.2,0.1-0.3,0.2-0.5c-0.2,0.1-0.4,0.2-0.6,0.2c-0.1,0.1-0.3,0.1-0.3-0.1C5.5,18,5.6,18,5.8,17.9  c0.2-0.1,0.3-0.2,0.5-0.3c-0.2,0-0.3,0-0.5,0c-0.1,0-0.3-0.1-0.2-0.2c0-0.1,0.1-0.2,0.2-0.2c0.2,0,0.3,0,0.5,0  c0.1,0,0.1-0.1,0.2-0.1c0,0,0-0.1,0-0.1C6.3,17,6,16.9,5.8,16.9c-0.1,0-0.3-0.1-0.2-0.3c0-0.2,0.2-0.1,0.3-0.1  c0.2,0.1,0.5,0.1,0.7,0.2c-0.1-0.1-0.2-0.1-0.3-0.2c-0.1-0.1-0.1-0.3-0.1-0.3c0.1-0.2,0.2,0,0.3,0c0.1,0.1,0.3,0.2,0.5,0.3  c0-0.1-0.1-0.2-0.1-0.3c0-0.1,0.1-0.2,0.1-0.3c0.1,0,0.2,0.1,0.2,0.2c0.1,0.2,0.2,0.2,0.3,0.2c0.9-0.1,1.3,0.5,1.4,1.4  c0,0.1,0,0.2,0,0.3c0.2-0.1,0.4-0.1,0.5-0.2c0.6-0.1,1.1,0.1,1.5,0.6c0.6,0.7,0.7,1.6,0.2,2.3c-0.4,0.6-1.1,0.8-1.7,0.4  c-0.6-0.4-0.8-1.1-0.5-1.8c0.2-0.4,0.6-0.6,0.9-0.5c0.4,0.1,0.7,0.6,0.6,0.9c0,0.2-0.1,0.3-0.3,0.4c-0.1,0.1-0.3,0.1-0.4,0  C10,20.2,10,20,10,19.8c0-0.1,0.1-0.2,0-0.3c-0.1,0-0.2,0.1-0.3,0.1c-0.1,0.2-0.1,0.5,0.1,0.7c0.2,0.2,0.4,0.4,0.7,0.3  c0.5-0.1,0.8-0.7,0.6-1.2c-0.1-0.3-0.4-0.6-0.6-0.9c-0.2-0.2-0.5-0.2-0.8-0.1c-0.5,0.2-0.8,0.6-1,1.2c-0.2,0.8,0.2,1.8,0.9,2.2  C9.8,22,10,22,10.3,21.9c1.4-0.3,2.6,0,3.6,1.2c0.1,0.2,0.3,0.4,0.4,0.5c0.4,0.5,0.9,0.7,1.6,0.7c0.7,0,1.2-0.8,0.9-1.4  c-0.1-0.3-0.5-0.5-0.9-0.3c-0.3,0.1-0.4,0.6-0.2,0.8c0.1,0.1,0.2,0,0.3,0.1c0-0.1,0-0.1,0-0.1c-0.2-0.2-0.2-0.4,0-0.6  c0.2-0.1,0.4,0,0.5,0.2c0.2,0.3,0.2,0.8-0.2,1c-0.4,0.3-0.9,0.2-1.1-0.2c-0.3-0.4-0.3-1.2,0.2-1.6c0.5-0.4,1.2-0.4,1.6,0.1  c0.1,0.1,0.2,0.3,0.4,0.6c0.1-0.3,0.2-0.6,0.2-0.9c0.2-1.5-0.1-3-0.7-4.3c-0.2-0.5-0.6-0.9-1-1.2c-0.4-0.3-0.9-0.3-1.3-0.3  c-1.2,0.2-2.2,1.2-2.2,2.5c0,0.4,0.1,0.9,0.2,1.3c0.3,0.9,0.9,1.4,1.9,1.4c0.9,0,1.6-0.7,1.7-1.6c0-0.5-0.1-1-0.3-1.4  c-0.2-0.4-0.5-0.6-1-0.6c-0.6,0.1-0.8,0.3-0.9,0.8c0,0.3,0,0.7,0.1,1c0.1,0.3,0.5,0.4,0.8,0.2c0.3-0.1,0.3-0.5,0.1-0.8  c-0.1,0-0.2,0.1-0.3,0.1c-0.1,0-0.3-0.1-0.3-0.2c0-0.1,0-0.3,0-0.5c0.2-0.4,0.7-0.4,1.1,0c0.4,0.4,0.5,1.2,0.2,1.7  c-0.3,0.5-0.9,0.8-1.5,0.6c-0.6-0.2-1-0.6-1.1-1.3c-0.1-0.5,0-1,0.2-1.4c0.3-0.7,1-1.1,1.8-1.1c0.6,0,1.1,0.3,1.4,0.9  c0.4,0.8,0.6,1.7,0.3,2.6c-0.4,1.4-1.5,2-2.9,1.7c-1.4-0.2-2.1-1.4-2.3-2.7c-0.1-0.7,0-1.4,0.2-2c0,0,0-0.1,0-0.1  c-0.5,0.2-1,0.3-1.6,0.1c-1-0.2-1.5-0.9-1.5-2c0-0.3,0-0.7-0.1-1c-0.1-0.4-0.5-0.5-1-0.3c-0.4,0.2-0.5,0.5-0.3,0.9  c0.1,0.1,0.2,0.3,0.3,0.3c0.1,0,0.2-0.2,0.4-0.3c-0.2,0-0.4,0-0.5,0c-0.1,0-0.1-0.2,0-0.3c0.1-0.1,0.2-0.3,0.3-0.3  c0.4-0.1,0.7,0.3,0.6,0.7c-0.1,0.4-0.5,0.9-1.1,0.7c-0.1,0-0.1,0-0.2,0.1c-0.1,0-0.2,0.1-0.3,0.1c0,0-0.1-0.2-0.1-0.3c0,0,0,0,0,0  c-0.1,0-0.3,0.1-0.4-0.1c-0.1-0.2,0.1-0.2,0.2-0.3c0.1,0,0.2-0.1,0.3-0.2C6.6,14.9,6.3,15,6,15c-0.1,0-0.2-0.1-0.3-0.1  c-0.1-0.1,0-0.2,0.2-0.2c0.3,0,0.5-0.1,0.8-0.2c-0.2,0-0.4-0.1-0.6-0.1c-0.1,0-0.1-0.1-0.2-0.2C6,14.1,6.1,14,6.1,14  c0.2,0,0.4,0.1,0.6,0.1C6.8,14.1,6.9,14,7,14c0,0,0-0.1,0-0.1c-0.1-0.1-0.3-0.1-0.4-0.2c-0.1-0.1-0.1-0.2-0.2-0.3  c0.1,0,0.2-0.1,0.3-0.1c0.2,0.1,0.4,0.2,0.7,0.2c-0.1-0.1-0.2-0.2-0.3-0.4c0-0.1,0-0.2,0-0.3c0.1,0,0.2,0,0.3,0.1  c0.2,0.1,0.3,0.3,0.4,0.4c0,0,0,0,0.1,0c0-0.1,0-0.2,0-0.3c0-0.1,0.1-0.1,0.1-0.2C8,13,8.1,13,8.1,13.1c0,0.3,0.1,0.3,0.4,0.4  c0.4,0.1,0.5,0.4,0.7,0.7c0.3-0.4,0.6-0.8,0.8-1.2c0.3-0.5,0.2-1.1-0.1-1.6c0-0.1-0.1-0.1-0.2-0.2c-0.4-0.1-0.9,0.1-1.2,0.4  c-0.2,0.3-0.1,0.8,0.2,1c0.2,0.1,0.5,0,0.6-0.3c0,0,0-0.1-0.1-0.1c0,0-0.1,0-0.1,0c-0.1,0.2-0.2,0.3-0.4,0.2c-0.1-0.1-0.1-0.4,0-0.6  c0.2-0.2,0.5-0.2,0.8-0.1c0.2,0.1,0.3,0.4,0.3,0.6c-0.1,0.4-0.3,0.7-0.7,0.8c-0.4,0.1-0.7-0.1-1-0.5c0,0,0-0.1-0.1-0.1  c-0.1,0.1-0.3,0.1-0.4,0.2c-0.1,0-0.2,0-0.3-0.1c0-0.1,0-0.2,0.1-0.3c0.1-0.1,0.2-0.1,0.4-0.2c0,0,0.1-0.1,0.1-0.2  c-0.3,0.1-0.5,0.1-0.8,0.2c-0.1,0-0.3,0.1-0.3-0.1c0-0.2,0.1-0.2,0.2-0.2c0.3-0.1,0.5-0.1,0.8-0.2c-0.3-0.1-0.5-0.1-0.7-0.2  c-0.1,0-0.1-0.2-0.2-0.2c0.1,0,0.2-0.1,0.3-0.1c0.2,0,0.5,0.1,0.7,0.1c0.1,0,0.1,0,0.2,0c0,0,0-0.1,0-0.1c-0.2-0.1-0.5-0.3-0.7-0.4  c-0.1-0.1-0.2-0.1-0.2-0.2c-0.1-0.1,0-0.2-0.1-0.3c0.1,0,0.2,0,0.3,0c0.4,0.2,0.7,0.4,1,0.6c0,0,0.1,0,0.1,0  c-0.1-0.1-0.2-0.1-0.2-0.2c0-0.1,0-0.2,0-0.3c0.1,0,0.2-0.1,0.2,0c0.3,0.3,0.6,0.3,0.9,0.3c0.3,0,0.6,0.2,0.7,0.5  c0.3,0.7,0.4,1.4,0.1,2.1c0.2,0,0.3,0,0.5,0c0.6,0,1,0.3,1.2,0.9c0.1,0.4,0.2,0.9,0.1,1.4c0,0,0,0.1,0,0.1c-0.1,0.5-0.8,0.8-1.4,0.8  c-0.5,0-0.9-0.4-1-0.9c-0.1-0.4,0.1-0.8,0.4-1c0.3-0.2,0.7-0.2,1,0.1c0.2,0.2,0.2,0.4,0.1,0.5c-0.1,0.2-0.3,0.2-0.5,0  c-0.1-0.1-0.2-0.1-0.3,0c-0.1,0.1-0.1,0.2,0,0.4c0.1,0.2,0.3,0.3,0.5,0.3c0.2,0,0.4-0.1,0.6-0.2c0.1,0,0.1-0.1,0.1-0.2  c0-0.3,0-0.6-0.1-1c-0.1-0.3-0.3-0.4-0.6-0.5c-0.8-0.1-1.5,0.5-1.6,1.4c-0.1,0.9,0.4,1.4,1.3,1.5c0.5,0,1-0.1,1.4-0.4  c0.8-0.6,1.6-1,2.5-1.3c0.7-0.2,1.4-0.5,2-0.8c0.7-0.3,1.1-1,1.3-1.8c0.1-0.5,0.1-0.9,0.1-1.4c0-0.4-0.2-0.8-0.5-1.2  C17,9.2,16,9,15.2,9.4c-0.7,0.4-1.1,1.3-0.9,2.2c0.3,1.1,1.1,1.3,1.8,1.1c0.9-0.3,1-1.1,0.5-1.7c-0.2-0.2-0.6-0.3-0.9-0.2  c-0.2,0.1-0.3,0.4-0.3,0.6c0,0.1,0.1,0.2,0.2,0.2c0.1-0.1,0.2-0.1,0.2-0.2c0.1-0.2,0.2-0.4,0.4-0.4c0.2,0,0.3,0.2,0.3,0.5  c0,0.5-0.2,0.8-0.7,0.9c-0.4,0.1-0.9,0-1.1-0.4c-0.4-0.6-0.3-1.6,0.3-2c0.6-0.5,1.6-0.4,2,0.2c0.5,0.7,0.7,1.4,0.3,2.2  c-0.4,0.8-1.1,1.1-1.9,1.1c-0.2,0-0.4,0-0.6-0.1c0,0.2,0,0.4-0.1,0.6c-0.1,0.7-0.8,1.2-1.4,1.2c-0.7,0-1.2-0.5-1.4-1.2  c-0.1-0.6,0.3-1.3,0.9-1.4c0.4,0,0.7,0.1,0.9,0.4c0.2,0.3,0.2,0.6,0,0.9c-0.1,0.1-0.2,0.2-0.4,0.3c-0.2,0-0.4-0.1-0.5-0.2  c-0.1,0-0.1-0.3,0-0.4c0.1-0.1,0.2-0.2,0.4-0.2c0-0.2-0.2-0.3-0.4-0.2c-0.3,0.2-0.4,0.6-0.1,0.9c0.2,0.3,0.5,0.4,0.8,0.3  c0.4-0.1,0.6-0.4,0.7-0.8c0-0.3-0.1-0.6-0.3-0.9c-0.2-0.3-0.4-0.6-0.6-0.9c-0.3,0.3-0.6,0.4-1.1,0.5c-1,0.1-1.9-0.5-2.1-1.6  c0-0.2,0-0.4,0-0.6c0-0.3,0-0.7-0.1-1c0-0.2-0.2-0.3-0.4-0.3c-0.2,0-0.4,0-0.5,0.1C9,9.2,8.9,9.5,9.2,9.8c0.2,0.2,0.2,0.2,0.3,0  C9.4,9.7,9.3,9.6,9.2,9.5c0-0.1,0.1-0.3,0.3-0.3C9.7,9,9.9,9.2,10,9.4c0.2,0.3,0,0.8-0.2,1c-0.3,0.2-0.7,0.1-0.9-0.2  C8.7,10,8.6,9.9,8.4,10c-0.1,0-0.2,0-0.3-0.1C8,9.8,8.1,9.7,8.3,9.6c0.1,0,0.2-0.1,0.3-0.1c0,0,0-0.1,0-0.1c-0.2,0-0.4,0-0.5,0  c-0.1,0-0.2-0.1-0.2-0.2C7.8,9.2,7.9,9.1,8,9.1c0.2,0,0.4,0,0.6-0.1C8.5,8.9,8.3,8.9,8.2,8.8C8,8.7,7.9,8.6,7.7,8.5  c-0.1,0,0-0.2,0-0.3c0.1,0,0.2,0,0.3,0c0.3,0.1,0.6,0.3,0.9,0.4c0,0,0.1,0,0.2,0C8.9,8.5,8.7,8.4,8.6,8.3C8.5,8.2,8.4,8.1,8.4,8  c0-0.1,0-0.2,0-0.3c0.1,0,0.2,0.1,0.3,0.1C8.9,8,9.1,8.2,9.3,8.4c0.1,0,0.2,0,0.3,0.1C9.5,8.2,9.4,8.1,9.3,7.9  c0-0.1-0.1-0.1-0.1-0.2c0-0.1,0-0.3,0.1-0.4c0.2-0.1,0.2,0.1,0.2,0.2C9.7,7.8,9.8,8.1,10,8.3c0,0,0.1,0,0.1,0  C10.1,8.2,10.2,8,10.3,8c0.2,0,0.1,0.2,0.2,0.4c0.1,0.2,0.2,0.5,0.3,0.7c0.3-0.2,0.7-0.3,1-0.5c0.5-0.3,0.6-0.7,0.5-1.3  c-0.1-0.5-0.5-0.8-0.9-0.9c-0.4,0-0.6,0.2-0.6,0.6c0,0.3,0.1,0.5,0.2,0.7c0.1,0.2,0.3,0.1,0.4,0c0.1-0.1,0.1-0.2,0.1-0.2  c-0.2,0-0.4,0-0.5-0.1c-0.1,0,0-0.2,0-0.3c0.1-0.2,0.2-0.3,0.4-0.2c0.5,0.1,0.7,0.8,0.4,1.1c-0.4,0.5-1,0.4-1.3-0.1  c-0.1-0.2-0.2-0.2-0.4-0.2c-0.1,0-0.3,0-0.3-0.1c0-0.1,0.1-0.2,0.2-0.2c0.2-0.1,0.2-0.1,0.2-0.4C10,7,9.7,7,9.5,7  c-0.1,0-0.2,0-0.3,0C9.1,7,9.1,6.9,9,6.8c0.1-0.1,0.1-0.2,0.2-0.2c0.3,0,0.6-0.1,0.9-0.1C9.9,6.5,9.6,6.4,9.4,6.3  c-0.1,0-0.2-0.1-0.3-0.1C9,6.1,9,6,9,5.9c0.1,0,0.2-0.1,0.3-0.1c0.3,0.1,0.6,0.2,1,0.3c0.1,0,0.2,0,0.3,0.1C10.2,6,10,5.8,9.8,5.6  C9.7,5.5,9.5,5.4,9.5,5.3c0-0.1,0-0.2,0-0.3C9.5,5,9.6,5,9.7,5c0.3,0.3,0.6,0.5,0.9,0.8c0.1,0.1,0.1,0.1,0.2,0.1c0,0,0,0,0.1,0  c0-0.1-0.1-0.1-0.1-0.2c-0.1-0.2-0.2-0.3-0.2-0.5c0-0.1,0.1-0.2,0.1-0.3c0.1,0.1,0.2,0.1,0.2,0.2c0.1,0.3,0.3,0.5,0.6,0.7  c0-0.1,0-0.3,0-0.4c0-0.1,0.1-0.1,0.1-0.2c0.1,0.1,0.2,0.1,0.2,0.2c0,0.1,0,0.2,0.1,0.4c0,0.1,0.1,0.2,0.2,0.3  c0.8,0.4,1,1.7,0.6,2.4c0,0.1-0.1,0.1-0.1,0.2c0.4,0.2,0.8,0.4,0.9,0.9c0.1,0.5,0.1,1.1-0.3,1.5c-0.3,0.4-0.9,0.5-1.4,0.2  c-0.4-0.2-0.5-0.7-0.4-1.1c0.2-0.4,0.7-0.6,1.1-0.5c0.2,0.1,0.3,0.2,0.3,0.5c0,0.3-0.3,0.4-0.5,0.3c-0.1,0-0.2,0-0.3,0  c0,0.1,0,0.2,0,0.3c0.2,0.2,0.6,0.1,0.7-0.1c0.2-0.5,0.1-1-0.3-1.2c-0.5-0.3-1-0.1-1.2,0.4c-0.2,0.5-0.2,1.1,0.1,1.5  c0.3,0.4,0.7,0.5,1.2,0.4c0.4,0,0.7-0.3,0.9-0.7c0.1-0.2,0.2-0.5,0.2-0.7c0.1-0.5,0.4-1,0.8-1.4c-0.1-0.1-0.2-0.1-0.2-0.2  C13.3,8,13.1,7,13.5,5.9c0-0.1,0.1-0.2,0.2-0.3c0.2-0.4,0.1-0.8-0.2-1.1c-0.2-0.2-0.5-0.2-0.7,0c-0.2,0.2-0.3,0.6-0.2,0.8  c0,0.1,0.1,0.2,0.2,0.1c0.1,0,0.2-0.1,0.3-0.2c-0.1-0.1-0.2-0.1-0.2-0.1c0-0.1-0.1-0.2-0.1-0.3c0-0.1,0.2-0.1,0.3-0.1  c0.2,0.1,0.3,0.2,0.4,0.3c0.2,0.3,0,0.7-0.4,0.9c-0.3,0.2-0.7,0.1-0.9-0.3C12,5.4,12,5.2,11.9,5c-0.1,0-0.3,0-0.4,0  c-0.1,0-0.2-0.1-0.2-0.2c0.1-0.1,0.1-0.2,0.2-0.2c0.2,0,0.4,0,0.6-0.1c0,0,0,0,0-0.1c-0.2-0.1-0.5-0.1-0.7-0.2  c-0.1,0-0.2-0.2-0.2-0.2c0-0.2,0.2-0.1,0.3-0.1C11.7,4,12,4.1,12.3,4.2c0,0,0,0,0-0.1c-0.2-0.2-0.4-0.3-0.6-0.5  c-0.1-0.1-0.2-0.2-0.2-0.4c0-0.1,0-0.2,0.1-0.2c0,0,0.1,0,0.2,0.1c0.3,0.2,0.6,0.5,0.9,0.8c0,0,0.1,0,0.3,0  c-0.1-0.2-0.2-0.5-0.3-0.7c0-0.1-0.1-0.2-0.1-0.3c0-0.1,0-0.2,0.1-0.3c0.1,0,0.2,0.1,0.2,0.1c0.2,0.3,0.3,0.7,0.5,1.1  c0-0.2,0-0.4,0.1-0.6c0-0.1,0.1-0.1,0.2-0.2c0.1,0.1,0.2,0.1,0.2,0.2c0,0.1,0,0.2,0,0.3c0.1,0,0.2-0.1,0.3,0C14,3.6,14,3.7,14,3.8  C14,4,14,4.2,14,4.4c0.1-0.1,0.1-0.1,0.2-0.1c0.1,0,0.2,0,0.3,0c0,0.1,0,0.2,0,0.3c-0.1,0.2-0.2,0.3-0.2,0.5c0.7-0.1,1.4-0.4,1.9-1  c0.2-0.3,0.3-0.7,0.2-1c-0.1-0.3-0.3-0.5-0.7-0.4c-0.5,0.1-0.7,0.3-0.6,0.6c0,0.1,0.1,0.3,0.2,0.4c0.1,0,0.3,0,0.5-0.1  c-0.2-0.1-0.4-0.1-0.4-0.1c-0.1-0.1,0-0.3,0-0.3c0.1-0.1,0.3-0.2,0.4-0.2c0.2,0,0.3,0.2,0.4,0.4c0.1,0.3,0,0.5-0.2,0.7  c-0.5,0.4-1.2,0.2-1.3-0.5c0-0.1-0.1-0.1-0.2-0.2c0,0-0.1,0-0.2-0.1c-0.1-0.1-0.3-0.1-0.2-0.3c0.1-0.2,0.2-0.1,0.4,0  c0.1,0,0.1,0,0.2,0c-0.2-0.1-0.4-0.1-0.6-0.3c-0.2-0.1-0.4-0.2-0.5-0.4c-0.1-0.1,0-0.2,0-0.3c0.1,0,0.2,0,0.3,0.1  c0.3,0.2,0.7,0.4,1,0.5c0,0,0-0.1,0.1-0.1c-0.1-0.1-0.3-0.2-0.4-0.4C14.1,2,14,1.8,13.9,1.6c0-0.1,0-0.2,0-0.3c0.1,0,0.2,0,0.3,0.1  c0.3,0.3,0.5,0.5,0.8,0.8c0,0,0.1,0,0.2,0c-0.2-0.3-0.3-0.6-0.5-0.9c0-0.1-0.1-0.1-0.1-0.2c0-0.1,0.1-0.2,0.1-0.3  c0.1,0,0.2,0.1,0.2,0.1c0.2,0.3,0.3,0.6,0.5,0.9c0,0.1,0.1,0.1,0.3,0.2c-0.1-0.2-0.1-0.5-0.2-0.7c0-0.2-0.1-0.3,0-0.5  c0-0.1,0.1-0.2,0.1-0.2c0.1,0.1,0.2,0.1,0.2,0.2C15.9,1.3,16,1.6,16.1,2c0,0.1,0.1,0.2,0.2,0.2c0-0.2,0.1-0.4,0.1-0.5  c0-0.1,0.1-0.3,0.2-0.2c0.1,0,0.1,0.2,0.1,0.3c0,0.2-0.1,0.5-0.1,0.7c0.1,0,0.3,0,0.3,0.1c0,0.1,0,0.2,0,0.3c0,0.2-0.1,0.4-0.1,0.6  c0,0.7-0.3,1.1-0.7,1.6C16,4.9,15.9,5,15.8,5.1c0.1,0,0.1,0.1,0.2,0.1c0.6,0.4,0.8,1.1,0.7,1.8c-0.1,0.6-0.8,1.2-1.4,1.2  c-0.7,0-1.2-0.8-1-1.6C14.5,6,14.9,5.7,15.5,6C16,6.3,16,6.9,15.6,7.3c-0.1,0.1-0.2,0.1-0.3,0c-0.1,0-0.1-0.2-0.1-0.3  c0-0.1,0.1-0.2,0.1-0.3c-0.2-0.2-0.3-0.1-0.4,0.1c-0.1,0.2,0,0.5,0.2,0.7c0.2,0.2,0.4,0.1,0.6,0C16,7.2,16.2,6.7,16,6.2  c-0.2-0.5-0.6-0.7-1.2-0.6c-0.8,0.2-1.2,1-0.9,1.8c0.2,0.5,0.5,0.9,1,1c0.1,0,0.2,0,0.2,0c0.6-0.2,1.3-0.2,1.9,0.1c0,0,0.1,0,0.1,0  c0,0,0,0,0,0c-0.1-0.4-0.2-0.7-0.3-1.1c-0.1-0.7-0.1-1.5,0.1-2.2c0.2-0.6,0.6-1,1.2-1.1c0.3-0.1,0.6-0.3,0.8-0.5  c0.3-0.4-0.1-1.1-0.6-1.2c-0.5-0.1-0.9,0.1-0.9,0.6c0,0.2,0,0.4,0.2,0.5c0.2,0.1,0.4,0,0.5-0.2c-0.1-0.1-0.3-0.1-0.3-0.2  c0-0.1,0-0.3,0.1-0.3c0.1-0.1,0.3-0.1,0.4,0c0.3,0.2,0.4,0.6,0.2,1C18.3,4,17.9,4.1,17.5,4c-0.4-0.1-0.6-0.4-0.6-0.8  C17,3,17,2.7,17.1,2.5c0-0.1,0.1-0.2,0-0.3c0,0-0.1-0.1-0.1-0.1c0-0.1,0-0.2,0-0.3c0.1,0,0.2,0,0.2,0.1c0.1,0.1,0.1,0.1,0.2,0.2  c0,0,0,0,0.1,0c-0.1-0.1-0.2-0.3-0.2-0.4c0-0.1,0-0.3,0-0.3c0.2-0.1,0.2,0,0.3,0.2c0.1,0.2,0.2,0.3,0.3,0.4c0-0.1,0-0.2,0-0.3  c0-0.2-0.1-0.5-0.1-0.7c0-0.1,0.1-0.2,0.2-0.3c0.1,0.1,0.1,0.2,0.2,0.2c0.1,0.3,0.1,0.7,0.1,1c0,0,0,0,0.1,0c0-0.1,0-0.1,0-0.2  c0-0.5,0-0.9,0-1.4c0-0.1,0-0.3,0.2-0.3c0.1,0,0.2,0.2,0.2,0.3c0,0.6,0,1.1,0,1.7c0-0.1,0.1-0.2,0.1-0.2c0-0.1,0-0.3,0.1-0.4  c0-0.1,0.2-0.2,0.3-0.2c0.2,0,0.1,0.2,0.1,0.3c-0.1,0.3-0.2,0.6-0.2,0.9c0.2-0.2,0.4-0.4,0.5-0.7c0-0.1,0.1-0.3,0.2-0.2  C20,1.4,20,1.6,19.9,1.7c-0.1,0.3-0.3,0.6-0.4,0.9c0.1,0,0.1-0.1,0.2-0.1c0.1-0.1,0.3-0.2,0.4-0.1c0.1,0.2,0,0.3-0.2,0.4  c-0.1,0.1-0.3,0.2-0.4,0.4c0.1,0,0.2-0.1,0.3-0.1c0.1,0,0.2,0.1,0.2,0.1c0,0,0,0.2-0.1,0.2c-0.5,0.1-0.5,0.5-0.8,0.8  c0.2,0.1,0.4,0.1,0.5,0.2c0.2,0.1,0.4,0.2,0.5,0.3c0.4,0.4,0.8,0.4,1.2,0.3c0.5-0.1,0.8-0.7,0.7-1.2c-0.1-0.2-0.2-0.4-0.4-0.4  c-0.3-0.1-0.6-0.2-0.9,0.1c-0.1,0.1-0.1,0.2-0.1,0.3c0.1-0.2,0.1-0.3,0.4-0.3c0.2,0,0.3,0.2,0.4,0.4c0.1,0.3-0.1,0.5-0.3,0.7  c-0.2,0.1-0.5,0-0.7-0.1c-0.3-0.3-0.4-0.8-0.2-1.1c0-0.1,0-0.2,0-0.3c0-0.1,0-0.2,0-0.3c0.1,0,0.2,0,0.3,0.1c0.1,0,0.1,0.1,0.2,0.1  c0,0,0,0,0,0c-0.1-0.2-0.1-0.3-0.2-0.5c0-0.1,0-0.3,0.1-0.3c0.2,0,0.2,0.1,0.2,0.2c0.1,0.2,0.2,0.4,0.3,0.5c0,0,0.1,0,0.1,0  c0-0.2,0-0.5,0.1-0.7c0-0.1,0-0.3,0.1-0.4c0-0.1,0.2-0.1,0.2-0.2c0,0.1,0.1,0.2,0.1,0.3c0,0.3-0.1,0.7-0.1,1c0,0,0.1,0,0.1,0  c0.1-0.2,0.2-0.5,0.2-0.7c0-0.1,0-0.3,0.2-0.3c0.2,0,0.2,0.2,0.1,0.3c-0.1,0.3-0.2,0.6-0.2,0.9c0.1-0.2,0.2-0.4,0.3-0.5  c0.1-0.1,0.2-0.1,0.3-0.2c0,0.1,0.1,0.3,0,0.3c-0.1,0.2-0.2,0.4-0.3,0.6c0,0.1-0.1,0.1-0.1,0.2c0,0,0.1,0,0.1,0  c0.1-0.1,0.2-0.3,0.4-0.4c0.1-0.1,0.2-0.1,0.3-0.1c0,0.1,0.1,0.3,0,0.3c-0.1,0.2-0.3,0.4-0.5,0.5c-0.1,0.1-0.1,0.1-0.2,0.2  c0,0,0,0,0,0.1c0.1,0,0.2-0.1,0.3-0.1c0.1,0,0.2,0,0.3,0c0,0.1,0,0.2-0.1,0.3c-0.1,0.1-0.2,0.1-0.3,0.2c-0.3,0-0.5,0.2-0.5,0.4  C22.5,5,22.7,5,22.9,4.9c0.1,0,0.2-0.1,0.3-0.2c0.1-0.1,0.2-0.3,0.4-0.1c0.1,0.1,0,0.3,0,0.4c0.1-0.1,0.2-0.3,0.4-0.5  c0.1-0.1,0.2-0.2,0.3-0.1c0.2,0.1,0.1,0.2,0,0.4C24.1,4.8,24,5,23.9,5.1c0,0,0,0,0.1,0c0.1-0.2,0.3-0.3,0.4-0.5  c0.1-0.1,0.1-0.2,0.2-0.2c0.1,0,0.2,0,0.3-0.1c0,0.1,0.1,0.2,0,0.3c-0.2,0.2-0.4,0.5-0.6,0.7c0,0.1-0.1,0.1-0.1,0.2  c0.3,0,0.5-0.2,0.7-0.4C24.9,5.1,25,5,25.2,5.1c0.1,0.1,0,0.3-0.1,0.4c-0.2,0.2-0.5,0.3-0.7,0.5c-0.1,0-0.1,0.1-0.2,0.2  c0.1,0,0.2,0,0.3,0c0.1,0,0.1,0.1,0.2,0.1c0,0.1-0.1,0.2-0.1,0.2c-0.4,0-0.8,0.2-1.2,0.3C23,6.8,22.7,6.5,22.8,6  c0-0.1,0.1-0.2,0.2-0.2c0.1,0,0.2,0.1,0.2,0.2c0.1,0.1,0.1,0.2,0.2,0.3c0.1-0.1,0.2-0.1,0.3-0.2c0-0.1,0-0.3,0-0.4  c-0.1-0.2-0.6-0.4-0.8-0.3c-0.4,0.2-0.7,0.6-0.5,1c0.1,0.4,0.3,0.7,0.8,0.8c0.2,0.1,0.4,0.2,0.6,0.4c0,0,0.1-0.1,0.1-0.2  c0.1-0.3,0.4-0.6,0.7-0.6c0.2,0,0.4-0.2,0.4-0.4c0.1-0.1,0.1-0.3,0.3-0.2c0.2,0.1,0.1,0.2,0,0.4c0,0,0,0.1-0.1,0.1c0,0,0,0,0.1,0  c0.2-0.2,0.3-0.3,0.5-0.5c0.1-0.1,0.2-0.3,0.3-0.4c0.1-0.1,0.2-0.1,0.3-0.1c0,0.1,0,0.2,0,0.3c-0.2,0.3-0.4,0.5-0.6,0.8  c0,0,0,0.1-0.1,0.1c0,0,0,0,0,0.1c0.1,0,0.2-0.1,0.3-0.1c0.2-0.1,0.4-0.3,0.5-0.4c0.1-0.1,0.2-0.2,0.4,0c0.1,0.2,0,0.2-0.1,0.3  c-0.2,0.2-0.5,0.4-0.7,0.5c0,0,0,0,0,0.1c0.2-0.1,0.3-0.2,0.5-0.3c0.1-0.1,0.2-0.2,0.3,0c0,0.1,0,0.2-0.1,0.3  c-0.1,0.1-0.3,0.2-0.4,0.3c0,0-0.1,0.1-0.1,0.1c0.1,0,0.1,0.1,0.2,0.1c0.2-0.1,0.4-0.1,0.6-0.2c0.1,0,0.2,0,0.3,0  c0,0.1,0,0.3-0.1,0.3c-0.2,0.1-0.5,0.2-0.8,0.3c-0.1,0-0.1,0.1-0.2,0.1c0,0,0,0.1,0,0.1c0.1,0,0.3,0,0.4,0c0.1,0,0.2,0.1,0.2,0.1  c-0.1,0.1-0.1,0.2-0.2,0.2c-0.5,0-0.8,0.2-1.2,0.5c-0.3,0.2-0.9,0-1-0.4c-0.2-0.4,0-1,0.3-1.2c0.2-0.1,0.4-0.1,0.5,0.1  c0.1,0.2,0.2,0.4,0.1,0.6c0,0.2-0.3,0.2-0.4-0.1c-0.1,0.1-0.1,0.3,0,0.4C24.9,8.9,25,9,25.2,8.9c0.3-0.1,0.5-0.6,0.4-0.9  c-0.1-0.4-0.4-0.7-0.8-0.7c-0.4,0-0.6,0.1-0.7,0.5C24,8.2,24,8.5,24,8.9c0,0.4,0,0.7-0.1,1.1c-0.1,0.7-0.5,1.1-1.1,1.3  c0.2,0.3,0.4,0.6,0.6,1c0-0.4,0.2-0.7,0.4-1c0.3-0.3,0.7-0.4,1.1-0.4c0-0.4,0-0.8,0.3-1.1c0.2-0.1,0.4-0.2,0.6-0.3  c0.1,0,0.1-0.1,0.2-0.1c0.1-0.1,0.2-0.2,0.2-0.1c0.1,0,0.1,0.2,0.2,0.2c0.1-0.1,0.2-0.3,0.3-0.4c0.1-0.1,0.2-0.2,0.3-0.1  c0.1,0.1,0.1,0.2,0,0.3c-0.1,0.1-0.2,0.2-0.2,0.4c0.2-0.1,0.3-0.2,0.5-0.3c0.1-0.1,0.3-0.1,0.4,0c0.1,0.2-0.1,0.2-0.2,0.3  c-0.1,0.1-0.3,0.2-0.4,0.3c0.2-0.1,0.4-0.2,0.7-0.3c0.1,0,0.3,0,0.3,0.1c0.1,0.1,0,0.2-0.2,0.3c-0.2,0.1-0.4,0.2-0.6,0.3  c-0.1,0-0.1,0.1-0.1,0.1c0.1,0,0.1,0.1,0.2,0.1c0.2,0,0.3,0,0.5,0c0.1,0,0.3,0,0.3,0.2c0,0.2-0.1,0.2-0.3,0.2c-0.3,0-0.5,0-0.8,0.1  c0,0,0,0.1,0,0.1c0.1,0.1,0.2,0.1,0.3,0.2c0.1,0.1,0.2,0.1,0.2,0.1c0.1,0.1,0.1,0.2,0.1,0.3c-0.1,0-0.2,0.1-0.3,0.1  c-0.2-0.1-0.4-0.2-0.6-0.3c-0.1,0-0.1-0.1-0.3-0.1c0,0.2,0.1,0.4,0.1,0.6c0,0.1-0.1,0.2-0.1,0.3c-0.1-0.1-0.2-0.1-0.2-0.2  c0-0.1-0.1-0.2-0.1-0.3c0-0.2-0.1-0.3-0.2-0.4c-0.2-0.2-0.3-0.7-0.1-0.9c0.1-0.2,0.4-0.2,0.5-0.1c0.1,0.1,0.1,0.3-0.1,0.5  c0.3,0,0.4-0.1,0.3-0.3C26.5,10,26,9.8,25.7,9.9c-0.3,0.2-0.5,0.6-0.3,1c0,0.1,0.1,0.1,0.1,0.2c0.4,0.4,0.6,0.8,0.7,1.3  c0.2-0.1,0.4-0.1,0.6-0.2c0.1,0,0.1-0.1,0.2-0.2c0.1-0.1,0.2-0.3,0.3-0.2c0.1,0.1,0.1,0.2,0.1,0.3c0,0.1,0.1,0.2,0.1,0.4  c0.2-0.2,0.4-0.4,0.5-0.6c0.1-0.1,0.2-0.2,0.4-0.1c0.1,0.1,0,0.2-0.1,0.4c-0.1,0.1-0.3,0.3-0.4,0.5c0.1-0.1,0.3-0.1,0.4-0.2  c0.1,0,0.2,0.1,0.3,0.1c-0.1,0.1-0.1,0.2-0.2,0.2c-0.2,0.1-0.3,0.2-0.5,0.3c0.3,0,0.5,0,0.8,0.1c0,0,0.1,0,0.1,0  c0.1,0.1,0.4,0,0.3,0.3c-0.1,0.2-0.2,0.1-0.4,0.1c-0.3,0-0.5,0-0.8,0c0,0-0.1,0-0.2,0.1c0.3,0.1,0.5,0.1,0.7,0.1  c0.1,0,0.3,0.1,0.2,0.3c0,0.1-0.2,0.1-0.3,0.1c-0.3,0-0.5-0.1-0.8-0.1c0,0,0,0.1,0,0.1c0,0,0.1,0,0.1,0.1c0,0.1,0.1,0.2,0.1,0.2  c0,0.1-0.1,0.1-0.2,0.1c-0.3-0.1-0.6-0.1-0.9-0.2c-0.3-0.1-0.5-0.5-0.4-0.8c0.1-0.4,0.3-0.5,0.7-0.5c0.1,0,0.2,0.1,0.2,0.2  c0,0.1-0.1,0.2-0.2,0.3c-0.1,0.1-0.1,0.1-0.2,0.1c0,0,0.1,0.1,0.1,0.1c0.1,0,0.2,0,0.3-0.1c0.2-0.2,0.3-0.7,0.1-0.9  c-0.2-0.3-0.5-0.3-0.7-0.1c-0.2,0.2-0.4,0.5-0.5,0.8c-0.2,0.5-0.5,0.9-1,1.1c-0.5,0.2-1,0.1-1.4-0.2c-0.1,0-0.1-0.1-0.2-0.2  c-0.1,0.3-0.1,0.6-0.2,0.8c-0.4,1.2-1.3,1.7-2.6,1.6c-1.2-0.1-1.8-0.8-1.9-2c0-0.5,0-0.9,0.1-1.4c0.2-0.9,0.6-1.3,1.6-1.4  c0.2,0,0.4-0.1,0.6,0c0.9,0.1,1.5,1,1.3,1.9c-0.1,0.5-0.3,1-0.8,1.3c-0.5,0.3-1.1,0.2-1.5-0.2c-0.3-0.4-0.4-1.1-0.1-1.6  c0.2-0.3,0.7-0.4,1-0.2c0.2,0.1,0.3,0.3,0.2,0.5c-0.1,0.2-0.2,0.3-0.6,0.3c0,0.1,0,0.4,0.1,0.4c0.1,0.1,0.3,0.1,0.4,0  c0.3-0.1,0.5-0.7,0.4-1.1c-0.1-0.4-0.3-0.6-0.7-0.6c-0.2,0-0.4,0.1-0.7,0.1c-0.6,0.2-0.6,0.7-0.7,1.2c0,0.3,0,0.5,0,0.8  c0.1,0.8,0.8,1.1,1.5,1.1c0.9-0.1,1.4-0.5,1.6-1.8c0.1-0.4,0-0.9-0.1-1.3c-0.1-0.8-0.6-1.3-1.4-1.4c-0.8-0.2-1.5,0.1-2,0.7  c-0.6,0.8-0.9,1.7-0.8,2.8c0.1,1.1,0.3,2.2,0.8,3.2c0.3,0.8,0.8,1.3,1.6,1.5c0.6,0.2,1.4-0.2,1.6-0.9c0.1-0.3,0-0.7-0.3-0.9  c-0.3-0.2-0.6-0.2-0.9-0.1c-0.2,0.1-0.3,0.4-0.3,0.6c0.1,0.2,0.2,0.3,0.4,0.2c0-0.2-0.1-0.3-0.1-0.5c0-0.1,0.2-0.2,0.2-0.2  c0.2,0.1,0.4,0.2,0.5,0.3c0.2,0.2,0.1,0.6-0.1,0.8c-0.2,0.3-0.5,0.3-0.8,0.2c-0.4-0.1-0.7-0.5-0.7-0.9c0-0.5,0.2-1,0.7-1.2  c0.6-0.2,1.1-0.1,1.6,0.3c0.4,0.5,0.5,1.1,0.3,1.7c-0.1,0.3-0.3,0.5-0.4,0.8c1.1,0,2.3,0,3.3-0.7c0.8-0.6,1-1.9,0.3-2.7  c-0.4-0.5-1.2-0.6-1.7-0.1c-0.4,0.4-0.4,1.4,0.1,1.7c0.2,0.2,0.6,0.2,0.8,0c0.2-0.1,0.2-0.4,0.1-0.7c0-0.1-0.1-0.2-0.2-0.3  c0,0,0,0-0.1,0c0,0.1,0,0.2,0,0.2c0,0.2-0.1,0.4-0.3,0.4c-0.1,0-0.3-0.1-0.4-0.2c-0.4-0.5,0-1.2,0.6-1.3c0.6-0.1,1.2,0.4,1.2,1.1  c0.1,0.9-0.3,1.4-1,1.6c-0.8,0.2-1.5-0.3-1.8-1.1c-0.1-0.4-0.2-0.9-0.1-1.3c0.2-1.3,1.7-1.9,2.8-1.2c0.1,0.1,0.2,0.1,0.3,0.2  c0.1-0.1,0.1-0.3,0.2-0.4c0.3-0.6,0.7-0.8,1.3-0.6c0.1,0,0.2,0,0.3-0.1c0.1-0.1,0.2-0.1,0.3-0.1c0,0.1,0,0.2,0.1,0.3  c0.1-0.1,0.2-0.2,0.3-0.3c0.1,0,0.2,0,0.3-0.1c0,0.1,0,0.2,0,0.3c-0.1,0.1-0.2,0.3-0.4,0.4c0,0,0,0.1-0.1,0.1c0,0,0,0,0,0.1  c0.2-0.1,0.4-0.2,0.6-0.3c0.1,0,0.1-0.1,0.2-0.1c0.1,0,0.2,0,0.3,0c0,0.1,0,0.2-0.1,0.3c-0.2,0.2-0.5,0.3-0.8,0.4c0,0-0.1,0-0.1,0.1  c0.3-0.1,0.7-0.1,1-0.2c0.1,0,0.2,0.1,0.2,0.1c0,0.1-0.1,0.2-0.1,0.2c-0.2,0.1-0.5,0.1-0.7,0.2c-0.1,0-0.3,0-0.4,0.1  c-0.1,0-0.1,0.1-0.2,0.2c0.1,0,0.1,0.1,0.2,0.1c0.2,0.1,0.4,0.1,0.6,0.1c0.1,0,0.2,0.2,0.2,0.2c0,0.2-0.2,0.1-0.3,0.1  c-0.2-0.1-0.5-0.1-0.7-0.1c-0.1,0-0.1,0-0.2,0c0,0,0,0.1,0,0.1c0.1,0.1,0.2,0.1,0.3,0.2c0.2,0.1,0.5,0.2,0.7,0.3  c0.1,0,0.1,0.2,0.2,0.3c-0.1,0-0.2,0.1-0.3,0.1c-0.4-0.2-0.8-0.3-1.2-0.5c0.1,0.2,0.1,0.3,0.2,0.5c0.1,0.2,0.2,0.3,0.3,0.5  c0,0.1,0,0.2,0,0.3c-0.1,0-0.2,0-0.3-0.1c-0.2-0.3-0.3-0.6-0.5-0.9c0,0,0-0.1-0.1-0.1c0,0,0,0-0.1,0c0,0.1,0,0.2,0,0.3  c0,0.1-0.1,0.1-0.2,0.2c-0.1-0.1-0.2-0.1-0.2-0.2c0-0.3-0.1-0.6-0.3-0.9c-0.2-0.5-0.1-0.9,0.3-1c0.3-0.1,0.7,0.1,0.6,0.5  c0,0.2,0,0.4-0.2,0.4c-0.2,0-0.2-0.2-0.3-0.4c0,0.1-0.1,0.1-0.1,0.1c0.1,0.2,0.2,0.4,0.3,0.4c0.2,0.1,0.3-0.1,0.3-0.2  c0.1-0.3,0.3-0.6,0.1-0.9c-0.2-0.3-0.5-0.4-0.8-0.4c-0.1,0-0.2,0-0.3,0.1c-0.3,0.2-0.5,0.9-0.3,1.2c0.3,0.6,0.3,1.2,0.2,1.8  c0,0.1,0,0.1,0,0.2c0.3,0,0.5,0.1,0.8,0.1c0.3,0.1,0.5,0.2,0.8,0.1c0,0,0.2,0,0.2,0.1c0,0.1,0,0.2-0.1,0.2c0,0-0.1,0.1-0.2,0.1  c0.1,0,0.3-0.1,0.4-0.1c0.1,0,0.3-0.1,0.3,0.1c0,0.2-0.1,0.2-0.2,0.3c-0.2,0-0.3,0.1-0.5,0.2c0,0,0,0.1,0,0.1c0.2,0,0.4-0.1,0.7-0.1  c0.1,0,0.3-0.1,0.3,0.1c0.1,0.2-0.1,0.3-0.2,0.3c-0.2,0-0.4,0.1-0.5,0.1c-0.1,0-0.2,0-0.2,0.1c0,0,0,0.1,0,0.1c0.2,0,0.4,0,0.6,0.1  c0.1,0,0.1,0,0.2,0c0.1,0,0.3,0,0.3,0.2c0,0.2-0.1,0.2-0.3,0.2c-0.2,0-0.5,0-0.7,0c-0.1,0-0.1,0.1-0.2,0.1c0,0,0,0.1,0.1,0.1  c0.2,0.1,0.4,0.1,0.5,0.2c0.1,0,0.1,0.1,0.2,0.2c-0.1,0.1-0.2,0.2-0.2,0.1c-0.2-0.1-0.4-0.2-0.7-0.3c-0.1,0-0.1,0-0.2,0  c0,0.1,0,0.2,0,0.2c0.1,0.2,0.3,0.3,0.5,0.5c0.1,0.1,0.1,0.2,0.1,0.3c-0.1,0-0.2,0.1-0.3,0c-0.2-0.2-0.4-0.4-0.6-0.6  c0,0-0.1-0.1-0.2-0.1c0,0.1,0,0.1,0,0.2c0,0.1,0,0.3,0,0.3c-0.2,0.1-0.2-0.1-0.3-0.2c-0.1-0.1-0.1-0.2-0.3-0.2  c-0.6-0.1-1.1-0.6-1-1.2c0-0.5,0.7-1,1.2-0.9c0.3,0.1,0.4,0.3,0.5,0.5c0,0.2,0,0.4-0.2,0.5c-0.1,0-0.2,0-0.3,0c0-0.1,0-0.3,0-0.4  c0,0,0,0,0.1-0.1c-0.3-0.1-0.6,0.1-0.6,0.3c-0.1,0.3,0.2,0.7,0.5,0.7c0.5,0.1,1.1-0.1,1.1-0.9c0-0.4,0-0.8-0.4-1  c-0.4-0.2-0.9-0.1-1.1,0.3c-0.5,0.7-1.2,1-2,1.2c-0.2,0.1-0.4,0.1-0.7,0.2c0.9,0.5,1.1,1.4,1.3,2.3c0.2-0.2,0.4-0.5,0.6-0.7  c0.5-0.5,1.3-0.5,1.8,0c0.1,0.1,0.3,0.1,0.4,0.1c0.1,0,0.3,0,0.3,0.1c0.1,0.2-0.1,0.2-0.2,0.3c0,0,0,0-0.1,0c0,0.2,0.1,0.2,0.3,0.2  c0.2,0,0.4-0.1,0.4,0.2c0,0.3-0.3,0.2-0.4,0.2c0,0-0.1,0-0.2,0c0.1,0.1,0.2,0.2,0.2,0.2c0.2,0.1,0.3,0.1,0.5,0.1  c0.1,0,0.1,0.1,0.2,0.2c-0.1,0.1-0.1,0.2-0.2,0.2c-0.2,0-0.4,0-0.6-0.1c-0.1,0.2-0.1,0.3,0.1,0.4c0.1,0.1,0.3,0.1,0.4,0.2  c0.1,0.1,0.1,0.2,0.2,0.2c-0.1,0-0.2,0.1-0.3,0.1c-0.2,0-0.4-0.1-0.6-0.2c0.2,0.1,0.3,0.3,0.5,0.4c0.1,0.1,0.2,0.2,0.1,0.3  c0,0-0.2,0-0.3,0c-0.2-0.2-0.4-0.4-0.6-0.5c0,0.1,0,0.2,0,0.2c0.1,0.2,0.3,0.5,0.5,0.7c0,0.1,0,0.2,0,0.3c-0.1,0-0.2-0.1-0.3-0.1  c-0.2-0.2-0.3-0.5-0.5-0.7c0-0.1-0.1-0.1-0.2-0.2c0,0.1-0.1,0.2,0,0.2c0,0.2,0.1,0.3,0.1,0.5c0,0.1,0.1,0.2,0,0.2  c0,0.1-0.1,0.1-0.1,0.2c-0.1-0.1-0.2-0.1-0.2-0.2c-0.1-0.3-0.1-0.6-0.2-0.9c-0.2,0-0.3,0-0.3-0.2c0-0.1-0.1-0.2-0.2-0.2  c-0.4-0.3-0.5-0.9-0.3-1.3c0.2-0.3,0.5-0.5,0.9-0.4c0.3,0.1,0.5,0.2,0.6,0.6c0,0.1,0,0.2,0,0.3c0,0.2-0.2,0.3-0.4,0.3  c-0.1,0-0.3-0.1-0.3-0.2c0-0.1,0.1-0.3,0.1-0.4c-0.1-0.1-0.3,0-0.4,0.1c-0.2,0.1-0.1,0.3-0.1,0.5c0.2,0.4,0.9,0.7,1.3,0.1  c0.3-0.5,0.2-1.4-0.4-1.7c-0.2-0.2-0.8-0.1-1.1,0.1c-0.5,0.5-0.9,1-0.9,1.7c0,0.7-0.3,1.4-0.7,2.1c-0.2,0.3-0.2,0.7,0,1  c0.2,0.3,0.5,0.4,0.8,0.4c0.3,0,0.5-0.3,0.7-0.6c0.1-0.3,0.1-0.6-0.1-0.9c-0.1-0.1-0.2-0.2-0.3-0.2c-0.2,0.1-0.3,0.2-0.4,0.4  c0,0,0.1,0.1,0.1,0.1c0.2,0,0.3-0.1,0.4-0.1c0.1,0,0.1,0.3,0.1,0.3c0,0.1-0.2,0.3-0.3,0.3c-0.3,0.1-0.6-0.1-0.7-0.3  c-0.1-0.3-0.1-0.6,0.2-0.9c0.4-0.4,1-0.5,1.3,0c0,0.1,0.1,0,0.2,0.1c0.1,0,0.2,0.1,0.2,0.1c0,0.1-0.1,0.1-0.1,0.2  c0,0.1-0.1,0.2-0.1,0.2c0,0.1,0.1,0.1,0.2,0.1C27,27,27,27,27.1,27.1c-0.1,0.1-0.1,0.2-0.2,0.2c-0.1,0-0.2,0-0.2,0.2  c0.1,0,0.2,0,0.2,0c0.1,0,0.3,0,0.3,0.2c0,0.2-0.2,0.2-0.3,0.2c-0.1,0-0.2,0-0.3,0c-0.1,0-0.2,0-0.3,0.1c0,0,0,0.1,0,0.1  c0.1,0.1,0.2,0.2,0.4,0.3c0.1,0.1,0.3,0.2,0.2,0.4c-0.1,0.2-0.3,0-0.4-0.1c-0.1-0.1-0.2-0.2-0.4-0.2c-0.1,0-0.2,0-0.3,0  c0.1,0.2,0.3,0.3,0.3,0.5c0,0.1,0,0.2,0,0.3c-0.1,0-0.2-0.1-0.3-0.1c-0.1-0.1-0.2-0.3-0.3-0.4c-0.1-0.1-0.1-0.1-0.2-0.1  c0,0-0.1,0-0.1,0.1c0.1,0.2,0.2,0.4,0.2,0.6c0.1,0.1,0.2,0.3,0,0.4c-0.2,0.1-0.3-0.1-0.3-0.3c-0.1-0.3-0.2-0.5-0.3-0.8  c0,0,0-0.1-0.1-0.1c0,0-0.1,0-0.1,0c0,0.2-0.1,0.3-0.1,0.5c0,0.1,0,0.3-0.1,0.4c0,0.1-0.1,0.1-0.2,0.2c0-0.1-0.1-0.2-0.1-0.2  c0-0.3,0.1-0.6,0.1-0.9c0-0.1,0-0.1,0-0.2c-0.1,0.1-0.2,0.2-0.2,0.4c-0.1,0.1-0.1,0.2-0.2,0.3c-0.1,0.1-0.2,0.1-0.2,0.1  c0-0.1-0.1-0.2-0.1-0.3c0.1-0.2,0.2-0.4,0.3-0.6c0.2-0.2,0.2-0.4,0.1-0.6c0-0.1,0-0.1,0-0.1c-0.4,0.1-0.8,0.3-1.1,0.4  c-1.6,0.2-2.7-0.6-3.2-2.1c-0.4-1.3,0-2.6,0.9-3.4c0.7-0.5,1.5-0.7,2.3-0.3s1.2,1.1,1.3,2c0,0.9-0.2,1.6-0.9,2.1  c-0.6,0.4-1.2,0.3-1.7,0c-0.5-0.3-0.8-0.7-0.7-1.3c0-0.5,0.2-0.9,0.6-1.2c0.4-0.3,1-0.3,1.3,0.1c0.2,0.2,0.2,0.5,0,0.6  c-0.2,0.2-0.4,0.2-0.5,0c-0.2-0.2-0.3-0.1-0.4,0.1c-0.3,0.4-0.1,0.8,0.3,1c0.5,0.2,1,0.1,1.2-0.4c0.5-0.9,0.1-2-0.8-2.2  c-0.6-0.2-1.4,0.2-1.7,0.9c-0.5,1-0.4,2.2,0.4,3c0.9,0.9,2.5,0.6,3.1-0.5c0.6-1.2,0.6-2.4,0-3.6c-0.4-0.8-1.1-1.1-1.9-1.1  c-1.2-0.1-2.1,0.6-2.6,1.8c-0.4,1.1-0.6,2.2-0.7,3.3c0,1,0,2.1,0,3.1c0,1.1,0.3,2.2,0.6,3.3c0.2,1.1,0.7,2.1,1.2,3.1  c0.3,0.7,1,1,1.7,1.1c0.5,0,0.9-0.2,1.2-0.6c0.2-0.2,0.2-0.5,0-0.8c-0.2-0.3-0.5-0.5-0.7-0.7c-0.2-0.1-0.4-0.1-0.5,0  c-0.1,0.2-0.1,0.4-0.1,0.6c0,0.1,0.1,0.1,0.2,0.2c0,0,0.1,0,0.2-0.1c0.1-0.2,0.3-0.2,0.5-0.1c0.2,0.1,0.2,0.2,0.2,0.4  c0,0.5-0.6,0.8-1.1,0.6c-0.6-0.2-0.9-0.7-0.8-1.4c0.2-1.1,1.2-1.5,2.1-0.9c0.2,0.1,0.3,0.3,0.5,0.4c0.9,1,0.7,2.2-0.4,2.8  c-0.7,0.4-1.4,0.4-2.1,0.1c-0.7-0.4-1.3-0.9-1.6-1.7c-0.9-1.9-1.4-3.9-1.6-6c-0.2-2.1-0.2-4.1,0.3-6.1c0.3-1.3,0.9-2.4,2-3.1  c-0.2-0.1-0.4-0.2-0.7-0.3c-0.7-0.4-1.2-0.9-1.5-1.7c-0.5-1.2-0.8-2.4-0.8-3.7c0-0.1,0-0.1,0-0.2c0,0,0,0,0,0  c-0.5,0.3-1,0.6-1.5,0.8c0,0,0.1,0.1,0.1,0.1c0.9,0.7,1.4,1.6,1.7,2.7c0.3,1.1,0.5,2.3,0.4,3.4c-0.1,1.2-0.6,2.3-1.5,3.1  c-0.5,0.4-1.1,0.5-1.7,0.4c-0.1,0-0.1,0-0.2,0c0,0,0,0-0.1,0c0.1,0.4,0.2,0.9,0.3,1.3c0.3,0.8,0.4,1.7,0.4,2.5c0.1,1.7,0,3.3-0.3,5  c-0.3,1.3-0.8,2.4-1.8,3.3c-0.7,0.7-1.6,0.9-2.5,0.5c-1-0.4-1.5-2-1-3c0.3-0.6,1-1,1.7-1c0.1,0,0.3,0.1,0.4,0.2  c0.7,0.5,0.8,1.6,0.2,2.2c-0.1,0.1-0.2,0.2-0.3,0.2c-0.2,0.1-0.5,0-0.6-0.2c-0.1-0.2-0.1-0.7,0.1-0.8C11.7,35.2,11.9,35.2,12.1,35.1  z M22.1,7.2c-0.3-0.5-0.5-1.1-0.1-1.7c-0.4,0.1-0.8,0.1-1.2,0.2c0,0.3,0,0.7,0,1c-0.1,0.9-0.5,1.3-1.2,1.4c-0.8,0.1-1.5-0.2-1.8-0.9  c-0.2-0.5-0.1-1,0-1.5c0.1-0.3,0.3-0.5,0.6-0.6c0.4-0.1,0.8,0,1.2,0.2c0.3,0.3,0.5,0.7,0.3,1.1c-0.1,0.4-0.5,0.6-0.9,0.6  c-0.2,0-0.4-0.1-0.5-0.3c-0.1-0.2-0.1-0.4,0-0.6C18.7,6,19,6,19.1,6.2c0,0.1,0,0.1,0.1,0.2c0.2-0.2,0.2-0.3,0.1-0.5  c-0.2-0.2-0.5-0.2-0.7-0.1c-0.2,0.1-0.3,0.3-0.3,0.5c0,0.2,0,0.4,0,0.5c0.1,0.2,0.2,0.4,0.4,0.5c0.3,0.2,0.7,0.2,1,0.1  c0.1,0,0.2-0.1,0.3-0.2c0.5-0.6,0.3-1.7-0.3-2.1c-0.3-0.2-0.7-0.3-1-0.3c-0.5-0.1-0.9,0.2-1,0.7c-0.1,0.4-0.1,0.9-0.1,1.4  c0,0.7,0.3,1.3,0.6,2c0.3,0.7,0.6,1.4,0.7,2.1c0,0.2,0.1,0.4,0.1,0.6c0.4-0.3,0.8-0.7,1.1-1c0.4-0.3,0.4-0.8,0.2-1.2  c-0.1-0.2-0.2-0.4-0.4-0.3c-0.2,0-0.3,0.1-0.5,0.3c-0.1,0.2-0.1,0.3,0.2,0.4c0-0.3,0-0.5,0.3-0.5c0.2,0,0.4,0.2,0.4,0.5  c0,0.3-0.2,0.5-0.4,0.6c-0.3,0.1-0.5,0.1-0.7-0.1c-0.3-0.3-0.4-0.7-0.3-1.1c0.2-0.4,0.5-0.8,1-0.8c0.5,0,0.9,0.2,1.1,0.7  c0.2,0.5,0.2,1,0,1.5c0.4,0.1,0.7,0.1,1,0.2c0.2,0,0.3,0,0.5,0c0.6,0,1-0.3,1.1-0.9c0.1-0.4,0-0.9,0-1.4c0-0.3-0.3-0.5-0.6-0.6  c-0.4-0.1-0.9,0.1-1.1,0.5c-0.2,0.4-0.1,0.9,0.4,1c0.1,0,0.3,0,0.4-0.1c0.1-0.1,0.2-0.2,0.1-0.4c-0.3,0.1-0.5,0.1-0.5-0.1  c-0.1-0.2,0-0.4,0.3-0.6c0.3-0.2,0.7,0,0.9,0.4c0.2,0.4,0.1,0.8-0.2,1.1c-0.3,0.3-0.6,0.4-1,0.2c-0.9-0.3-1.1-1.5-0.5-2.2  C21.5,7.6,21.8,7.4,22.1,7.2z M24.9,12.5c-0.1,0-0.2,0-0.2,0.1c-0.2,0.1-0.3,0-0.4-0.1c-0.1-0.2-0.1-0.3,0.1-0.4  c0.2-0.2,0.5-0.2,0.8-0.1c0.3,0.1,0.4,0.3,0.4,0.6c0,0.1,0,0.2,0,0.3c-0.1,0.7-0.4,0.9-1.1,0.8c-0.4-0.1-0.7-0.3-0.9-0.7  c0,0.4,0.3,0.7,0.5,0.9c0.4,0.4,1,0.4,1.3,0c0.2-0.2,0.3-0.5,0.4-0.8c0.1-0.5,0.1-1-0.3-1.3c-0.3-0.3-0.8-0.3-1.1-0.1  c-0.3,0.3-0.3,0.8-0.1,1.2c0.2,0.2,0.4,0.2,0.6,0.1C24.9,12.9,24.9,12.7,24.9,12.5z"
     id="path4382"
     style="fill:#127f1f;fill-opacity:1" /></svg>